%TF.GenerationSoftware,KiCad,Pcbnew,(6.0.9)*%
%TF.CreationDate,2023-09-14T20:57:35+02:00*%
%TF.ProjectId,Ampli144MHz,416d706c-6931-4343-944d-487a2e6b6963,1.1*%
%TF.SameCoordinates,Original*%
%TF.FileFunction,Drillmap*%
%TF.FilePolarity,Positive*%
%FSLAX45Y45*%
G04 Gerber Fmt 4.5, Leading zero omitted, Abs format (unit mm)*
G04 Created by KiCad (PCBNEW (6.0.9)) date 2023-09-14 20:57:35*
%MOMM*%
%LPD*%
G01*
G04 APERTURE LIST*
%ADD10C,0.200000*%
%ADD11C,0.040000*%
%ADD12C,0.080000*%
%ADD13C,0.089000*%
%ADD14C,0.100000*%
%ADD15C,0.102000*%
%ADD16C,0.110000*%
%ADD17C,0.120000*%
%ADD18C,0.157000*%
%ADD19C,0.320000*%
G04 APERTURE END LIST*
D10*
D11*
X8146100Y-9644700D02*
X8186100Y-9684700D01*
X8186100Y-9644700D02*
X8146100Y-9684700D01*
X8171500Y-10635300D02*
X8211500Y-10675300D01*
X8211500Y-10635300D02*
X8171500Y-10675300D01*
X8184200Y-8603300D02*
X8224200Y-8643300D01*
X8224200Y-8603300D02*
X8184200Y-8643300D01*
X8184200Y-11727500D02*
X8224200Y-11767500D01*
X8224200Y-11727500D02*
X8184200Y-11767500D01*
X8209600Y-7536500D02*
X8249600Y-7576500D01*
X8249600Y-7536500D02*
X8209600Y-7576500D01*
X8235000Y-6368100D02*
X8275000Y-6408100D01*
X8275000Y-6368100D02*
X8235000Y-6408100D01*
X8323900Y-4679000D02*
X8363900Y-4719000D01*
X8363900Y-4679000D02*
X8323900Y-4719000D01*
X8387400Y-5123500D02*
X8427400Y-5163500D01*
X8427400Y-5123500D02*
X8387400Y-5163500D01*
X8654100Y-11359200D02*
X8694100Y-11399200D01*
X8694100Y-11359200D02*
X8654100Y-11399200D01*
X8717600Y-7536500D02*
X8757600Y-7576500D01*
X8757600Y-7536500D02*
X8717600Y-7576500D01*
X8717600Y-8235000D02*
X8757600Y-8275000D01*
X8757600Y-8235000D02*
X8717600Y-8275000D01*
X8717600Y-8895400D02*
X8757600Y-8935400D01*
X8757600Y-8895400D02*
X8717600Y-8935400D01*
X8743000Y-11156000D02*
X8783000Y-11196000D01*
X8783000Y-11156000D02*
X8743000Y-11196000D01*
X8755700Y-10406700D02*
X8795700Y-10446700D01*
X8795700Y-10406700D02*
X8755700Y-10446700D01*
X8793800Y-5047300D02*
X8833800Y-5087300D01*
X8833800Y-5047300D02*
X8793800Y-5087300D01*
X8895400Y-11448100D02*
X8935400Y-11488100D01*
X8935400Y-11448100D02*
X8895400Y-11488100D01*
X8997000Y-5326700D02*
X9037000Y-5366700D01*
X9037000Y-5326700D02*
X8997000Y-5366700D01*
X9124000Y-5796600D02*
X9164000Y-5836600D01*
X9164000Y-5796600D02*
X9124000Y-5836600D01*
X9251000Y-5250500D02*
X9291000Y-5290500D01*
X9291000Y-5250500D02*
X9251000Y-5290500D01*
X9378000Y-5860100D02*
X9418000Y-5900100D01*
X9418000Y-5860100D02*
X9378000Y-5900100D01*
X9543100Y-5936300D02*
X9583100Y-5976300D01*
X9583100Y-5936300D02*
X9543100Y-5976300D01*
X9606600Y-12413300D02*
X9646600Y-12453300D01*
X9646600Y-12413300D02*
X9606600Y-12453300D01*
X9644700Y-5250500D02*
X9684700Y-5290500D01*
X9684700Y-5250500D02*
X9644700Y-5290500D01*
X9682800Y-11244900D02*
X9722800Y-11284900D01*
X9722800Y-11244900D02*
X9682800Y-11284900D01*
X9733600Y-8628700D02*
X9773600Y-8668700D01*
X9773600Y-8628700D02*
X9733600Y-8668700D01*
X9809800Y-5936300D02*
X9849800Y-5976300D01*
X9849800Y-5936300D02*
X9809800Y-5976300D01*
X9860600Y-7142800D02*
X9900600Y-7182800D01*
X9900600Y-7142800D02*
X9860600Y-7182800D01*
X9860600Y-7282500D02*
X9900600Y-7322500D01*
X9900600Y-7282500D02*
X9860600Y-7322500D01*
X9886000Y-10470200D02*
X9926000Y-10510200D01*
X9926000Y-10470200D02*
X9886000Y-10510200D01*
X9898700Y-4996500D02*
X9938700Y-5036500D01*
X9938700Y-4996500D02*
X9898700Y-5036500D01*
X9911400Y-5542600D02*
X9951400Y-5582600D01*
X9951400Y-5542600D02*
X9911400Y-5582600D01*
X9911400Y-5542600D02*
X9951400Y-5582600D01*
X9951400Y-5542600D02*
X9911400Y-5582600D01*
X10000300Y-5479100D02*
X10040300Y-5519100D01*
X10040300Y-5479100D02*
X10000300Y-5519100D01*
X10114600Y-12311700D02*
X10154600Y-12351700D01*
X10154600Y-12311700D02*
X10114600Y-12351700D01*
X10140000Y-5474350D02*
X10180000Y-5514350D01*
X10180000Y-5474350D02*
X10140000Y-5514350D01*
X10165400Y-8616000D02*
X10205400Y-8656000D01*
X10205400Y-8616000D02*
X10165400Y-8656000D01*
X10406700Y-11422700D02*
X10446700Y-11462700D01*
X10446700Y-11422700D02*
X10406700Y-11462700D01*
X10432100Y-5352100D02*
X10472100Y-5392100D01*
X10472100Y-5352100D02*
X10432100Y-5392100D01*
X10635300Y-5110800D02*
X10675300Y-5150800D01*
X10675300Y-5110800D02*
X10635300Y-5150800D01*
X10660700Y-5720400D02*
X10700700Y-5760400D01*
X10700700Y-5720400D02*
X10660700Y-5760400D01*
X10940100Y-11156000D02*
X10980100Y-11196000D01*
X10980100Y-11156000D02*
X10940100Y-11196000D01*
X10940100Y-11524300D02*
X10980100Y-11564300D01*
X10980100Y-11524300D02*
X10940100Y-11564300D01*
X11003600Y-12489500D02*
X11043600Y-12529500D01*
X11043600Y-12489500D02*
X11003600Y-12529500D01*
X11029000Y-11689400D02*
X11069000Y-11729400D01*
X11069000Y-11689400D02*
X11029000Y-11729400D01*
X11181400Y-5352100D02*
X11221400Y-5392100D01*
X11221400Y-5352100D02*
X11181400Y-5392100D01*
X11219500Y-9835200D02*
X11259500Y-9875200D01*
X11259500Y-9835200D02*
X11219500Y-9875200D01*
X11270300Y-6126800D02*
X11310300Y-6166800D01*
X11310300Y-6126800D02*
X11270300Y-6166800D01*
X11270300Y-8908100D02*
X11310300Y-8948100D01*
X11310300Y-8908100D02*
X11270300Y-8948100D01*
X11283000Y-7536500D02*
X11323000Y-7576500D01*
X11323000Y-7536500D02*
X11283000Y-7576500D01*
X11283000Y-10508300D02*
X11323000Y-10548300D01*
X11323000Y-10508300D02*
X11283000Y-10548300D01*
X11359200Y-11156000D02*
X11399200Y-11196000D01*
X11399200Y-11156000D02*
X11359200Y-11196000D01*
X11498900Y-11689400D02*
X11538900Y-11729400D01*
X11538900Y-11689400D02*
X11498900Y-11729400D01*
X11537000Y-5136200D02*
X11577000Y-5176200D01*
X11577000Y-5136200D02*
X11537000Y-5176200D01*
X11537000Y-11918000D02*
X11577000Y-11958000D01*
X11577000Y-11918000D02*
X11537000Y-11958000D01*
X11651300Y-6584000D02*
X11691300Y-6624000D01*
X11691300Y-6584000D02*
X11651300Y-6624000D01*
X11651300Y-7168200D02*
X11691300Y-7208200D01*
X11691300Y-7168200D02*
X11651300Y-7208200D01*
X11651300Y-7879400D02*
X11691300Y-7919400D01*
X11691300Y-7879400D02*
X11651300Y-7919400D01*
X11651300Y-11105200D02*
X11691300Y-11145200D01*
X11691300Y-11105200D02*
X11651300Y-11145200D01*
X11689400Y-5377500D02*
X11729400Y-5417500D01*
X11729400Y-5377500D02*
X11689400Y-5417500D01*
X11702100Y-5999800D02*
X11742100Y-6039800D01*
X11742100Y-5999800D02*
X11702100Y-6039800D01*
X11702100Y-5999800D02*
X11742100Y-6039800D01*
X11742100Y-5999800D02*
X11702100Y-6039800D01*
X11714800Y-8768400D02*
X11754800Y-8808400D01*
X11754800Y-8768400D02*
X11714800Y-8808400D01*
X11727500Y-9835200D02*
X11767500Y-9875200D01*
X11767500Y-9835200D02*
X11727500Y-9875200D01*
X11791000Y-5060000D02*
X11831000Y-5100000D01*
X11831000Y-5060000D02*
X11791000Y-5100000D01*
X11803700Y-6139500D02*
X11843700Y-6179500D01*
X11843700Y-6139500D02*
X11803700Y-6179500D01*
X11892600Y-11562400D02*
X11932600Y-11602400D01*
X11932600Y-11562400D02*
X11892600Y-11602400D01*
X11905300Y-7904800D02*
X11945300Y-7944800D01*
X11945300Y-7904800D02*
X11905300Y-7944800D01*
X11918000Y-9111300D02*
X11958000Y-9151300D01*
X11958000Y-9111300D02*
X11918000Y-9151300D01*
X12032300Y-7815900D02*
X12072300Y-7855900D01*
X12072300Y-7815900D02*
X12032300Y-7855900D01*
X12032300Y-9365300D02*
X12072300Y-9405300D01*
X12072300Y-9365300D02*
X12032300Y-9405300D01*
X12121200Y-12527600D02*
X12161200Y-12567600D01*
X12161200Y-12527600D02*
X12121200Y-12567600D01*
X12159300Y-5974400D02*
X12199300Y-6014400D01*
X12199300Y-5974400D02*
X12159300Y-6014400D01*
X12159300Y-5974400D02*
X12199300Y-6014400D01*
X12199300Y-5974400D02*
X12159300Y-6014400D01*
X12159300Y-7041200D02*
X12199300Y-7081200D01*
X12199300Y-7041200D02*
X12159300Y-7081200D01*
X12159300Y-7727000D02*
X12199300Y-7767000D01*
X12199300Y-7727000D02*
X12159300Y-7767000D01*
X12172000Y-5136200D02*
X12212000Y-5176200D01*
X12212000Y-5136200D02*
X12172000Y-5176200D01*
X12184700Y-8108000D02*
X12224700Y-8148000D01*
X12224700Y-8108000D02*
X12184700Y-8148000D01*
X12247725Y-10706275D02*
X12287725Y-10746275D01*
X12287725Y-10706275D02*
X12247725Y-10746275D01*
X12248200Y-11003600D02*
X12288200Y-11043600D01*
X12288200Y-11003600D02*
X12248200Y-11043600D01*
X12260900Y-8362000D02*
X12300900Y-8402000D01*
X12300900Y-8362000D02*
X12260900Y-8402000D01*
X12273600Y-8997000D02*
X12313600Y-9037000D01*
X12313600Y-8997000D02*
X12273600Y-9037000D01*
X12299000Y-9949500D02*
X12339000Y-9989500D01*
X12339000Y-9949500D02*
X12299000Y-9989500D01*
X12527600Y-5568000D02*
X12567600Y-5608000D01*
X12567600Y-5568000D02*
X12527600Y-5608000D01*
X12527600Y-5568000D02*
X12567600Y-5608000D01*
X12567600Y-5568000D02*
X12527600Y-5608000D01*
X12578400Y-11219500D02*
X12618400Y-11259500D01*
X12618400Y-11219500D02*
X12578400Y-11259500D01*
X12616500Y-5364800D02*
X12656500Y-5404800D01*
X12656500Y-5364800D02*
X12616500Y-5404800D01*
X12680000Y-5098100D02*
X12720000Y-5138100D01*
X12720000Y-5098100D02*
X12680000Y-5138100D01*
X12718100Y-5453700D02*
X12758100Y-5493700D01*
X12758100Y-5453700D02*
X12718100Y-5493700D01*
X12781600Y-10165400D02*
X12821600Y-10205400D01*
X12821600Y-10165400D02*
X12781600Y-10205400D01*
X12794300Y-6355400D02*
X12834300Y-6395400D01*
X12834300Y-6355400D02*
X12794300Y-6395400D01*
X12794300Y-6482400D02*
X12834300Y-6522400D01*
X12834300Y-6482400D02*
X12794300Y-6522400D01*
X12794300Y-6482400D02*
X12834300Y-6522400D01*
X12834300Y-6482400D02*
X12794300Y-6522400D01*
X12832400Y-9378000D02*
X12872400Y-9418000D01*
X12872400Y-9378000D02*
X12832400Y-9418000D01*
X12845100Y-9657400D02*
X12885100Y-9697400D01*
X12885100Y-9657400D02*
X12845100Y-9697400D01*
X12967375Y-4601850D02*
X13007375Y-4641850D01*
X13007375Y-4601850D02*
X12967375Y-4641850D01*
X13035600Y-11511600D02*
X13075600Y-11551600D01*
X13075600Y-11511600D02*
X13035600Y-11551600D01*
X13124500Y-7231700D02*
X13164500Y-7271700D01*
X13164500Y-7231700D02*
X13124500Y-7271700D01*
X13175300Y-8095300D02*
X13215300Y-8135300D01*
X13215300Y-8095300D02*
X13175300Y-8135300D01*
X13238800Y-4920300D02*
X13278800Y-4960300D01*
X13278800Y-4920300D02*
X13238800Y-4960300D01*
X13238800Y-10482900D02*
X13278800Y-10522900D01*
X13278800Y-10482900D02*
X13238800Y-10522900D01*
X13251500Y-9073200D02*
X13291500Y-9113200D01*
X13291500Y-9073200D02*
X13251500Y-9113200D01*
X13416600Y-9809800D02*
X13456600Y-9849800D01*
X13456600Y-9809800D02*
X13416600Y-9849800D01*
X13632500Y-12337100D02*
X13672500Y-12377100D01*
X13672500Y-12337100D02*
X13632500Y-12377100D01*
X13645200Y-5098100D02*
X13685200Y-5138100D01*
X13685200Y-5098100D02*
X13645200Y-5138100D01*
X13835700Y-7003100D02*
X13875700Y-7043100D01*
X13875700Y-7003100D02*
X13835700Y-7043100D01*
X13848400Y-8171500D02*
X13888400Y-8211500D01*
X13888400Y-8171500D02*
X13848400Y-8211500D01*
X14165900Y-5187000D02*
X14205900Y-5227000D01*
X14205900Y-5187000D02*
X14165900Y-5227000D01*
X14331000Y-5606100D02*
X14371000Y-5646100D01*
X14371000Y-5606100D02*
X14331000Y-5646100D01*
X14534200Y-10749600D02*
X14574200Y-10789600D01*
X14574200Y-10749600D02*
X14534200Y-10789600D01*
X14724700Y-5174300D02*
X14764700Y-5214300D01*
X14764700Y-5174300D02*
X14724700Y-5214300D01*
X14788200Y-12667300D02*
X14828200Y-12707300D01*
X14828200Y-12667300D02*
X14788200Y-12707300D01*
X14889800Y-5606100D02*
X14929800Y-5646100D01*
X14929800Y-5606100D02*
X14889800Y-5646100D01*
X14927512Y-9592420D02*
X14967512Y-9632420D01*
X14967512Y-9592420D02*
X14927512Y-9632420D01*
X14978700Y-10749600D02*
X15018700Y-10789600D01*
X15018700Y-10749600D02*
X14978700Y-10789600D01*
X15042200Y-10444800D02*
X15082200Y-10484800D01*
X15082200Y-10444800D02*
X15042200Y-10484800D01*
X15105700Y-6787200D02*
X15145700Y-6827200D01*
X15145700Y-6787200D02*
X15105700Y-6827200D01*
X15105700Y-8895400D02*
X15145700Y-8935400D01*
X15145700Y-8895400D02*
X15105700Y-8935400D01*
X15118400Y-7866700D02*
X15158400Y-7906700D01*
X15158400Y-7866700D02*
X15118400Y-7906700D01*
X15207300Y-5936300D02*
X15247300Y-5976300D01*
X15247300Y-5936300D02*
X15207300Y-5976300D01*
X15207300Y-6291900D02*
X15247300Y-6331900D01*
X15247300Y-6291900D02*
X15207300Y-6331900D01*
X15308900Y-12006900D02*
X15348900Y-12046900D01*
X15348900Y-12006900D02*
X15308900Y-12046900D01*
X15372400Y-12451400D02*
X15412400Y-12491400D01*
X15412400Y-12451400D02*
X15372400Y-12491400D01*
X15397800Y-10165400D02*
X15437800Y-10205400D01*
X15437800Y-10165400D02*
X15397800Y-10205400D01*
X15410500Y-5174300D02*
X15450500Y-5214300D01*
X15450500Y-5174300D02*
X15410500Y-5214300D01*
X15410500Y-10749600D02*
X15450500Y-10789600D01*
X15450500Y-10749600D02*
X15410500Y-10789600D01*
X15524800Y-6291900D02*
X15564800Y-6331900D01*
X15564800Y-6291900D02*
X15524800Y-6331900D01*
X15639100Y-8946200D02*
X15679100Y-8986200D01*
X15679100Y-8946200D02*
X15639100Y-8986200D01*
X15715300Y-11054400D02*
X15755300Y-11094400D01*
X15755300Y-11054400D02*
X15715300Y-11094400D01*
X16045500Y-10140000D02*
X16085500Y-10180000D01*
X16085500Y-10140000D02*
X16045500Y-10180000D01*
X16121700Y-8235000D02*
X16161700Y-8275000D01*
X16161700Y-8235000D02*
X16121700Y-8275000D01*
X16147100Y-4552000D02*
X16187100Y-4592000D01*
X16187100Y-4552000D02*
X16147100Y-4592000D01*
X16350300Y-8895400D02*
X16390300Y-8935400D01*
X16390300Y-8895400D02*
X16350300Y-8935400D01*
X16451900Y-11664000D02*
X16491900Y-11704000D01*
X16491900Y-11664000D02*
X16451900Y-11704000D01*
X16502700Y-12464100D02*
X16542700Y-12504100D01*
X16542700Y-12464100D02*
X16502700Y-12504100D01*
X16744000Y-4717100D02*
X16784000Y-4757100D01*
X16784000Y-4717100D02*
X16744000Y-4757100D01*
X16756700Y-8425500D02*
X16796700Y-8465500D01*
X16796700Y-8425500D02*
X16756700Y-8465500D01*
X16769400Y-8895400D02*
X16809400Y-8935400D01*
X16809400Y-8895400D02*
X16769400Y-8935400D01*
X17353600Y-12045000D02*
X17393600Y-12085000D01*
X17393600Y-12045000D02*
X17353600Y-12085000D01*
X17594900Y-5288600D02*
X17634900Y-5328600D01*
X17634900Y-5288600D02*
X17594900Y-5328600D01*
X17658400Y-7892100D02*
X17698400Y-7932100D01*
X17698400Y-7892100D02*
X17658400Y-7932100D01*
X17759596Y-11520717D02*
X17799596Y-11560717D01*
X17799596Y-11520717D02*
X17759596Y-11560717D01*
X17760000Y-9682800D02*
X17800000Y-9722800D01*
X17800000Y-9682800D02*
X17760000Y-9722800D01*
X17760000Y-10736900D02*
X17800000Y-10776900D01*
X17800000Y-10736900D02*
X17760000Y-10776900D01*
X17772700Y-10444800D02*
X17812700Y-10484800D01*
X17812700Y-10444800D02*
X17772700Y-10484800D01*
D12*
X9213400Y-12179300D02*
G75*
G03*
X9213400Y-12179300I-40000J0D01*
G01*
X9374500Y-6896100D02*
G75*
G03*
X9374500Y-6896100I-40000J0D01*
G01*
X9374500Y-7396100D02*
G75*
G03*
X9374500Y-7396100I-40000J0D01*
G01*
X9552300Y-9427400D02*
G75*
G03*
X9552300Y-9427400I-40000J0D01*
G01*
X9552300Y-9927400D02*
G75*
G03*
X9552300Y-9927400I-40000J0D01*
G01*
X9713400Y-12179300D02*
G75*
G03*
X9713400Y-12179300I-40000J0D01*
G01*
X9742800Y-6887400D02*
G75*
G03*
X9742800Y-6887400I-40000J0D01*
G01*
X9742800Y-7387400D02*
G75*
G03*
X9742800Y-7387400I-40000J0D01*
G01*
X9755500Y-6180138D02*
G75*
G03*
X9755500Y-6180138I-40000J0D01*
G01*
X9755500Y-6430138D02*
G75*
G03*
X9755500Y-6430138I-40000J0D01*
G01*
X9895200Y-9427400D02*
G75*
G03*
X9895200Y-9427400I-40000J0D01*
G01*
X9895200Y-9927400D02*
G75*
G03*
X9895200Y-9927400I-40000J0D01*
G01*
X9935400Y-7835900D02*
G75*
G03*
X9935400Y-7835900I-40000J0D01*
G01*
X9935400Y-8343900D02*
G75*
G03*
X9935400Y-8343900I-40000J0D01*
G01*
X9937300Y-12179300D02*
G75*
G03*
X9937300Y-12179300I-40000J0D01*
G01*
X9937300Y-12496800D02*
G75*
G03*
X9937300Y-12496800I-40000J0D01*
G01*
X10098400Y-6896100D02*
G75*
G03*
X10098400Y-6896100I-40000J0D01*
G01*
X10098400Y-7396100D02*
G75*
G03*
X10098400Y-7396100I-40000J0D01*
G01*
X10189400Y-8089900D02*
G75*
G03*
X10189400Y-8089900I-40000J0D01*
G01*
X10238100Y-9431400D02*
G75*
G03*
X10238100Y-9431400I-40000J0D01*
G01*
X10238100Y-9931400D02*
G75*
G03*
X10238100Y-9931400I-40000J0D01*
G01*
X10437300Y-12179300D02*
G75*
G03*
X10437300Y-12179300I-40000J0D01*
G01*
X10437300Y-12496800D02*
G75*
G03*
X10437300Y-12496800I-40000J0D01*
G01*
X10835000Y-5969500D02*
G75*
G03*
X10835000Y-5969500I-40000J0D01*
G01*
X10835000Y-6223500D02*
G75*
G03*
X10835000Y-6223500I-40000J0D01*
G01*
X10835000Y-6477500D02*
G75*
G03*
X10835000Y-6477500I-40000J0D01*
G01*
X10835000Y-6731500D02*
G75*
G03*
X10835000Y-6731500I-40000J0D01*
G01*
X10835000Y-6985500D02*
G75*
G03*
X10835000Y-6985500I-40000J0D01*
G01*
X10835000Y-7239500D02*
G75*
G03*
X10835000Y-7239500I-40000J0D01*
G01*
X10835000Y-7493500D02*
G75*
G03*
X10835000Y-7493500I-40000J0D01*
G01*
X10835000Y-7747500D02*
G75*
G03*
X10835000Y-7747500I-40000J0D01*
G01*
X10835000Y-8001500D02*
G75*
G03*
X10835000Y-8001500I-40000J0D01*
G01*
X10835000Y-8255500D02*
G75*
G03*
X10835000Y-8255500I-40000J0D01*
G01*
X10835000Y-8509500D02*
G75*
G03*
X10835000Y-8509500I-40000J0D01*
G01*
X10835000Y-8763500D02*
G75*
G03*
X10835000Y-8763500I-40000J0D01*
G01*
X10835000Y-9017500D02*
G75*
G03*
X10835000Y-9017500I-40000J0D01*
G01*
X10835000Y-9271500D02*
G75*
G03*
X10835000Y-9271500I-40000J0D01*
G01*
X10835000Y-9525500D02*
G75*
G03*
X10835000Y-9525500I-40000J0D01*
G01*
X10835000Y-9779500D02*
G75*
G03*
X10835000Y-9779500I-40000J0D01*
G01*
X10835000Y-10033500D02*
G75*
G03*
X10835000Y-10033500I-40000J0D01*
G01*
X10835000Y-10287500D02*
G75*
G03*
X10835000Y-10287500I-40000J0D01*
G01*
X10835000Y-10541500D02*
G75*
G03*
X10835000Y-10541500I-40000J0D01*
G01*
X10835000Y-10795500D02*
G75*
G03*
X10835000Y-10795500I-40000J0D01*
G01*
X12613000Y-5969500D02*
G75*
G03*
X12613000Y-5969500I-40000J0D01*
G01*
X12613000Y-6223500D02*
G75*
G03*
X12613000Y-6223500I-40000J0D01*
G01*
X12613000Y-6477500D02*
G75*
G03*
X12613000Y-6477500I-40000J0D01*
G01*
X12613000Y-6731500D02*
G75*
G03*
X12613000Y-6731500I-40000J0D01*
G01*
X12613000Y-6985500D02*
G75*
G03*
X12613000Y-6985500I-40000J0D01*
G01*
X12613000Y-7239500D02*
G75*
G03*
X12613000Y-7239500I-40000J0D01*
G01*
X12613000Y-7493500D02*
G75*
G03*
X12613000Y-7493500I-40000J0D01*
G01*
X12613000Y-7747500D02*
G75*
G03*
X12613000Y-7747500I-40000J0D01*
G01*
X12613000Y-8001500D02*
G75*
G03*
X12613000Y-8001500I-40000J0D01*
G01*
X12613000Y-8255500D02*
G75*
G03*
X12613000Y-8255500I-40000J0D01*
G01*
X12613000Y-8509500D02*
G75*
G03*
X12613000Y-8509500I-40000J0D01*
G01*
X12613000Y-8763500D02*
G75*
G03*
X12613000Y-8763500I-40000J0D01*
G01*
X12613000Y-9017500D02*
G75*
G03*
X12613000Y-9017500I-40000J0D01*
G01*
X12613000Y-9271500D02*
G75*
G03*
X12613000Y-9271500I-40000J0D01*
G01*
X12613000Y-9525500D02*
G75*
G03*
X12613000Y-9525500I-40000J0D01*
G01*
X12613000Y-9779500D02*
G75*
G03*
X12613000Y-9779500I-40000J0D01*
G01*
X12613000Y-10033500D02*
G75*
G03*
X12613000Y-10033500I-40000J0D01*
G01*
X12613000Y-10287500D02*
G75*
G03*
X12613000Y-10287500I-40000J0D01*
G01*
X12613000Y-10541500D02*
G75*
G03*
X12613000Y-10541500I-40000J0D01*
G01*
X12613000Y-10795500D02*
G75*
G03*
X12613000Y-10795500I-40000J0D01*
G01*
X12693200Y-12039600D02*
G75*
G03*
X12693200Y-12039600I-40000J0D01*
G01*
X12693200Y-12382500D02*
G75*
G03*
X12693200Y-12382500I-40000J0D01*
G01*
X12693200Y-12712700D02*
G75*
G03*
X12693200Y-12712700I-40000J0D01*
G01*
X13019400Y-6604000D02*
G75*
G03*
X13019400Y-6604000I-40000J0D01*
G01*
X13023400Y-5473700D02*
G75*
G03*
X13023400Y-5473700I-40000J0D01*
G01*
X13023400Y-5842000D02*
G75*
G03*
X13023400Y-5842000I-40000J0D01*
G01*
X13027400Y-6223000D02*
G75*
G03*
X13027400Y-6223000I-40000J0D01*
G01*
X13044800Y-10515600D02*
G75*
G03*
X13044800Y-10515600I-40000J0D01*
G01*
X13044800Y-11277600D02*
G75*
G03*
X13044800Y-11277600I-40000J0D01*
G01*
X13057500Y-7607300D02*
G75*
G03*
X13057500Y-7607300I-40000J0D01*
G01*
X13108300Y-8648700D02*
G75*
G03*
X13108300Y-8648700I-40000J0D01*
G01*
X13193200Y-12039600D02*
G75*
G03*
X13193200Y-12039600I-40000J0D01*
G01*
X13193200Y-12382500D02*
G75*
G03*
X13193200Y-12382500I-40000J0D01*
G01*
X13193200Y-12712700D02*
G75*
G03*
X13193200Y-12712700I-40000J0D01*
G01*
X13523400Y-5473700D02*
G75*
G03*
X13523400Y-5473700I-40000J0D01*
G01*
X13523400Y-5842000D02*
G75*
G03*
X13523400Y-5842000I-40000J0D01*
G01*
X13527400Y-6223000D02*
G75*
G03*
X13527400Y-6223000I-40000J0D01*
G01*
X13578200Y-10096500D02*
G75*
G03*
X13578200Y-10096500I-40000J0D01*
G01*
X13578200Y-11366500D02*
G75*
G03*
X13578200Y-11366500I-40000J0D01*
G01*
X13616300Y-11872400D02*
G75*
G03*
X13616300Y-11872400I-40000J0D01*
G01*
X13730600Y-9164700D02*
G75*
G03*
X13730600Y-9164700I-40000J0D01*
G01*
X13730600Y-9664700D02*
G75*
G03*
X13730600Y-9664700I-40000J0D01*
G01*
X13870300Y-11618400D02*
G75*
G03*
X13870300Y-11618400I-40000J0D01*
G01*
X14035400Y-9164700D02*
G75*
G03*
X14035400Y-9164700I-40000J0D01*
G01*
X14035400Y-9664700D02*
G75*
G03*
X14035400Y-9664700I-40000J0D01*
G01*
X14035400Y-10758800D02*
G75*
G03*
X14035400Y-10758800I-40000J0D01*
G01*
X14035400Y-11266800D02*
G75*
G03*
X14035400Y-11266800I-40000J0D01*
G01*
X14073500Y-9910000D02*
G75*
G03*
X14073500Y-9910000I-40000J0D01*
G01*
X14073500Y-10410000D02*
G75*
G03*
X14073500Y-10410000I-40000J0D01*
G01*
X14124300Y-11872400D02*
G75*
G03*
X14124300Y-11872400I-40000J0D01*
G01*
X14289400Y-6604000D02*
G75*
G03*
X14289400Y-6604000I-40000J0D01*
G01*
X14327500Y-7607300D02*
G75*
G03*
X14327500Y-7607300I-40000J0D01*
G01*
X14352900Y-9173400D02*
G75*
G03*
X14352900Y-9173400I-40000J0D01*
G01*
X14352900Y-9673400D02*
G75*
G03*
X14352900Y-9673400I-40000J0D01*
G01*
X14378300Y-8648700D02*
G75*
G03*
X14378300Y-8648700I-40000J0D01*
G01*
X14416400Y-9914000D02*
G75*
G03*
X14416400Y-9914000I-40000J0D01*
G01*
X14416400Y-10414000D02*
G75*
G03*
X14416400Y-10414000I-40000J0D01*
G01*
X14490700Y-12065000D02*
G75*
G03*
X14490700Y-12065000I-40000J0D01*
G01*
X14568800Y-11226800D02*
G75*
G03*
X14568800Y-11226800I-40000J0D01*
G01*
X14568800Y-11671300D02*
G75*
G03*
X14568800Y-11671300I-40000J0D01*
G01*
X14646000Y-6605500D02*
G75*
G03*
X14646000Y-6605500I-40000J0D01*
G01*
X14646000Y-6859500D02*
G75*
G03*
X14646000Y-6859500I-40000J0D01*
G01*
X14646000Y-7113500D02*
G75*
G03*
X14646000Y-7113500I-40000J0D01*
G01*
X14646000Y-7608800D02*
G75*
G03*
X14646000Y-7608800I-40000J0D01*
G01*
X14646000Y-7862800D02*
G75*
G03*
X14646000Y-7862800I-40000J0D01*
G01*
X14646000Y-8116800D02*
G75*
G03*
X14646000Y-8116800I-40000J0D01*
G01*
X14646000Y-8648700D02*
G75*
G03*
X14646000Y-8648700I-40000J0D01*
G01*
X14646000Y-8902700D02*
G75*
G03*
X14646000Y-8902700I-40000J0D01*
G01*
X14646000Y-9156700D02*
G75*
G03*
X14646000Y-9156700I-40000J0D01*
G01*
X14746600Y-9914000D02*
G75*
G03*
X14746600Y-9914000I-40000J0D01*
G01*
X14746600Y-10414000D02*
G75*
G03*
X14746600Y-10414000I-40000J0D01*
G01*
X14998700Y-12065000D02*
G75*
G03*
X14998700Y-12065000I-40000J0D01*
G01*
X15076800Y-11226800D02*
G75*
G03*
X15076800Y-11226800I-40000J0D01*
G01*
X15076800Y-11671300D02*
G75*
G03*
X15076800Y-11671300I-40000J0D01*
G01*
X15408000Y-6605500D02*
G75*
G03*
X15408000Y-6605500I-40000J0D01*
G01*
X15408000Y-6859500D02*
G75*
G03*
X15408000Y-6859500I-40000J0D01*
G01*
X15408000Y-7113500D02*
G75*
G03*
X15408000Y-7113500I-40000J0D01*
G01*
X15408000Y-7608800D02*
G75*
G03*
X15408000Y-7608800I-40000J0D01*
G01*
X15408000Y-7862800D02*
G75*
G03*
X15408000Y-7862800I-40000J0D01*
G01*
X15408000Y-8116800D02*
G75*
G03*
X15408000Y-8116800I-40000J0D01*
G01*
X15408000Y-8648700D02*
G75*
G03*
X15408000Y-8648700I-40000J0D01*
G01*
X15408000Y-8902700D02*
G75*
G03*
X15408000Y-8902700I-40000J0D01*
G01*
X15408000Y-9156700D02*
G75*
G03*
X15408000Y-9156700I-40000J0D01*
G01*
X15470500Y-10958200D02*
G75*
G03*
X15470500Y-10958200I-40000J0D01*
G01*
X15470500Y-11466200D02*
G75*
G03*
X15470500Y-11466200I-40000J0D01*
G01*
X15483200Y-5541200D02*
G75*
G03*
X15483200Y-5541200I-40000J0D01*
G01*
X15483200Y-6041200D02*
G75*
G03*
X15483200Y-6041200I-40000J0D01*
G01*
X15634600Y-12061100D02*
G75*
G03*
X15634600Y-12061100I-40000J0D01*
G01*
X15799700Y-10727600D02*
G75*
G03*
X15799700Y-10727600I-40000J0D01*
G01*
X15800700Y-5545200D02*
G75*
G03*
X15800700Y-5545200I-40000J0D01*
G01*
X15800700Y-6045200D02*
G75*
G03*
X15800700Y-6045200I-40000J0D01*
G01*
X15888600Y-11807100D02*
G75*
G03*
X15888600Y-11807100I-40000J0D01*
G01*
X15965800Y-6468300D02*
G75*
G03*
X15965800Y-6468300I-40000J0D01*
G01*
X15965800Y-6968300D02*
G75*
G03*
X15965800Y-6968300I-40000J0D01*
G01*
X16043900Y-11379200D02*
G75*
G03*
X16043900Y-11379200I-40000J0D01*
G01*
X16053700Y-10473600D02*
G75*
G03*
X16053700Y-10473600I-40000J0D01*
G01*
X16118200Y-5545200D02*
G75*
G03*
X16118200Y-5545200I-40000J0D01*
G01*
X16118200Y-6045200D02*
G75*
G03*
X16118200Y-6045200I-40000J0D01*
G01*
X16142600Y-12061100D02*
G75*
G03*
X16142600Y-12061100I-40000J0D01*
G01*
X16270600Y-6468300D02*
G75*
G03*
X16270600Y-6468300I-40000J0D01*
G01*
X16270600Y-6968300D02*
G75*
G03*
X16270600Y-6968300I-40000J0D01*
G01*
X16307700Y-10727600D02*
G75*
G03*
X16307700Y-10727600I-40000J0D01*
G01*
X16486500Y-5642800D02*
G75*
G03*
X16486500Y-5642800I-40000J0D01*
G01*
X16486500Y-6142800D02*
G75*
G03*
X16486500Y-6142800I-40000J0D01*
G01*
X16524600Y-9224200D02*
G75*
G03*
X16524600Y-9224200I-40000J0D01*
G01*
X16524600Y-9724200D02*
G75*
G03*
X16524600Y-9724200I-40000J0D01*
G01*
X16551900Y-11379200D02*
G75*
G03*
X16551900Y-11379200I-40000J0D01*
G01*
X16613500Y-6832600D02*
G75*
G03*
X16613500Y-6832600I-40000J0D01*
G01*
X16613500Y-7332600D02*
G75*
G03*
X16613500Y-7332600I-40000J0D01*
G01*
X16740500Y-10142600D02*
G75*
G03*
X16740500Y-10142600I-40000J0D01*
G01*
X16740500Y-10642600D02*
G75*
G03*
X16740500Y-10642600I-40000J0D01*
G01*
X16816700Y-5646800D02*
G75*
G03*
X16816700Y-5646800I-40000J0D01*
G01*
X16816700Y-6146800D02*
G75*
G03*
X16816700Y-6146800I-40000J0D01*
G01*
X16816700Y-11044300D02*
G75*
G03*
X16816700Y-11044300I-40000J0D01*
G01*
X16816700Y-11544300D02*
G75*
G03*
X16816700Y-11544300I-40000J0D01*
G01*
X16854800Y-9224200D02*
G75*
G03*
X16854800Y-9224200I-40000J0D01*
G01*
X16854800Y-9724200D02*
G75*
G03*
X16854800Y-9724200I-40000J0D01*
G01*
X16931000Y-6832600D02*
G75*
G03*
X16931000Y-6832600I-40000J0D01*
G01*
X16931000Y-7332600D02*
G75*
G03*
X16931000Y-7332600I-40000J0D01*
G01*
X16985800Y-6502400D02*
G75*
G03*
X16985800Y-6502400I-40000J0D01*
G01*
X17108800Y-10147300D02*
G75*
G03*
X17108800Y-10147300I-40000J0D01*
G01*
X17108800Y-10647300D02*
G75*
G03*
X17108800Y-10647300I-40000J0D01*
G01*
X17134200Y-5651500D02*
G75*
G03*
X17134200Y-5651500I-40000J0D01*
G01*
X17134200Y-6151500D02*
G75*
G03*
X17134200Y-6151500I-40000J0D01*
G01*
X17146900Y-11044300D02*
G75*
G03*
X17146900Y-11044300I-40000J0D01*
G01*
X17146900Y-11544300D02*
G75*
G03*
X17146900Y-11544300I-40000J0D01*
G01*
X17261200Y-6832600D02*
G75*
G03*
X17261200Y-6832600I-40000J0D01*
G01*
X17261200Y-7332600D02*
G75*
G03*
X17261200Y-7332600I-40000J0D01*
G01*
X17324700Y-9224200D02*
G75*
G03*
X17324700Y-9224200I-40000J0D01*
G01*
X17324700Y-9724200D02*
G75*
G03*
X17324700Y-9724200I-40000J0D01*
G01*
X17477100Y-10147300D02*
G75*
G03*
X17477100Y-10147300I-40000J0D01*
G01*
X17477100Y-10647300D02*
G75*
G03*
X17477100Y-10647300I-40000J0D01*
G01*
X17477100Y-11044300D02*
G75*
G03*
X17477100Y-11044300I-40000J0D01*
G01*
X17477100Y-11544300D02*
G75*
G03*
X17477100Y-11544300I-40000J0D01*
G01*
X17485800Y-6502400D02*
G75*
G03*
X17485800Y-6502400I-40000J0D01*
G01*
D13*
X9093000Y-10725100D02*
X9093000Y-10814100D01*
X9048500Y-10769600D02*
X9137500Y-10769600D01*
X9093000Y-10928300D02*
X9093000Y-11017300D01*
X9048500Y-10972800D02*
X9137500Y-10972800D01*
X9093000Y-11131500D02*
X9093000Y-11220500D01*
X9048500Y-11176000D02*
X9137500Y-11176000D01*
X9093000Y-11334700D02*
X9093000Y-11423700D01*
X9048500Y-11379200D02*
X9137500Y-11379200D01*
X9271000Y-10623500D02*
X9271000Y-10712500D01*
X9226500Y-10668000D02*
X9315500Y-10668000D01*
X9271000Y-10826700D02*
X9271000Y-10915700D01*
X9226500Y-10871200D02*
X9315500Y-10871200D01*
X9271000Y-11029900D02*
X9271000Y-11118900D01*
X9226500Y-11074400D02*
X9315500Y-11074400D01*
X9271000Y-11233100D02*
X9271000Y-11322100D01*
X9226500Y-11277600D02*
X9315500Y-11277600D01*
X11176000Y-12147500D02*
X11176000Y-12236500D01*
X11131500Y-12192000D02*
X11220500Y-12192000D01*
X11277600Y-12325500D02*
X11277600Y-12414500D01*
X11233100Y-12370000D02*
X11322100Y-12370000D01*
X11379200Y-12147500D02*
X11379200Y-12236500D01*
X11334700Y-12192000D02*
X11423700Y-12192000D01*
X11480800Y-12325500D02*
X11480800Y-12414500D01*
X11436300Y-12370000D02*
X11525300Y-12370000D01*
X11582400Y-12147500D02*
X11582400Y-12236500D01*
X11537900Y-12192000D02*
X11626900Y-12192000D01*
X11684000Y-12325500D02*
X11684000Y-12414500D01*
X11639500Y-12370000D02*
X11728500Y-12370000D01*
X11785600Y-12147500D02*
X11785600Y-12236500D01*
X11741100Y-12192000D02*
X11830100Y-12192000D01*
X11887200Y-12325500D02*
X11887200Y-12414500D01*
X11842700Y-12370000D02*
X11931700Y-12370000D01*
D14*
X11592356Y-5534456D02*
X11592356Y-5463744D01*
X11521644Y-5463744D01*
X11521644Y-5534456D01*
X11592356Y-5534456D01*
X11907709Y-5763056D02*
X11907709Y-5692344D01*
X11836998Y-5692344D01*
X11836998Y-5763056D01*
X11907709Y-5763056D01*
X8635500Y-4876000D02*
X8685500Y-4826000D01*
X8635500Y-4776000D01*
X8585500Y-4826000D01*
X8635500Y-4876000D01*
X8889500Y-4876000D02*
X8939500Y-4826000D01*
X8889500Y-4776000D01*
X8839500Y-4826000D01*
X8889500Y-4876000D01*
X9143500Y-4876000D02*
X9193500Y-4826000D01*
X9143500Y-4776000D01*
X9093500Y-4826000D01*
X9143500Y-4876000D01*
X9397500Y-4876000D02*
X9447500Y-4826000D01*
X9397500Y-4776000D01*
X9347500Y-4826000D01*
X9397500Y-4876000D01*
X9651500Y-4876000D02*
X9701500Y-4826000D01*
X9651500Y-4776000D01*
X9601500Y-4826000D01*
X9651500Y-4876000D01*
X9905500Y-4876000D02*
X9955500Y-4826000D01*
X9905500Y-4776000D01*
X9855500Y-4826000D01*
X9905500Y-4876000D01*
X10159500Y-4876000D02*
X10209500Y-4826000D01*
X10159500Y-4776000D01*
X10109500Y-4826000D01*
X10159500Y-4876000D01*
X10413500Y-4876000D02*
X10463500Y-4826000D01*
X10413500Y-4776000D01*
X10363500Y-4826000D01*
X10413500Y-4876000D01*
X10667500Y-4876000D02*
X10717500Y-4826000D01*
X10667500Y-4776000D01*
X10617500Y-4826000D01*
X10667500Y-4876000D01*
X10921500Y-4876000D02*
X10971500Y-4826000D01*
X10921500Y-4776000D01*
X10871500Y-4826000D01*
X10921500Y-4876000D01*
X11175500Y-4876000D02*
X11225500Y-4826000D01*
X11175500Y-4776000D01*
X11125500Y-4826000D01*
X11175500Y-4876000D01*
X11429500Y-4876000D02*
X11479500Y-4826000D01*
X11429500Y-4776000D01*
X11379500Y-4826000D01*
X11429500Y-4876000D01*
X11431500Y-10845000D02*
X11481500Y-10795000D01*
X11431500Y-10745000D01*
X11381500Y-10795000D01*
X11431500Y-10845000D01*
X11683500Y-4876000D02*
X11733500Y-4826000D01*
X11683500Y-4776000D01*
X11633500Y-4826000D01*
X11683500Y-4876000D01*
X11685500Y-10845000D02*
X11735500Y-10795000D01*
X11685500Y-10745000D01*
X11635500Y-10795000D01*
X11685500Y-10845000D01*
X11937500Y-4876000D02*
X11987500Y-4826000D01*
X11937500Y-4776000D01*
X11887500Y-4826000D01*
X11937500Y-4876000D01*
X11939500Y-10845000D02*
X11989500Y-10795000D01*
X11939500Y-10745000D01*
X11889500Y-10795000D01*
X11939500Y-10845000D01*
X12191500Y-4876000D02*
X12241500Y-4826000D01*
X12191500Y-4776000D01*
X12141500Y-4826000D01*
X12191500Y-4876000D01*
X12445500Y-4876000D02*
X12495500Y-4826000D01*
X12445500Y-4776000D01*
X12395500Y-4826000D01*
X12445500Y-4876000D01*
X12699500Y-4876000D02*
X12749500Y-4826000D01*
X12699500Y-4776000D01*
X12649500Y-4826000D01*
X12699500Y-4876000D01*
X13157200Y-9714200D02*
X13207200Y-9664200D01*
X13157200Y-9614200D01*
X13107200Y-9664200D01*
X13157200Y-9714200D01*
X13157200Y-9968200D02*
X13207200Y-9918200D01*
X13157200Y-9868200D01*
X13107200Y-9918200D01*
X13157200Y-9968200D01*
X13589000Y-4876000D02*
X13639000Y-4826000D01*
X13589000Y-4776000D01*
X13539000Y-4826000D01*
X13589000Y-4876000D01*
X13843000Y-4876000D02*
X13893000Y-4826000D01*
X13843000Y-4776000D01*
X13793000Y-4826000D01*
X13843000Y-4876000D01*
X14097000Y-4876000D02*
X14147000Y-4826000D01*
X14097000Y-4776000D01*
X14047000Y-4826000D01*
X14097000Y-4876000D01*
X14351000Y-4876000D02*
X14401000Y-4826000D01*
X14351000Y-4776000D01*
X14301000Y-4826000D01*
X14351000Y-4876000D01*
X14605000Y-4876000D02*
X14655000Y-4826000D01*
X14605000Y-4776000D01*
X14555000Y-4826000D01*
X14605000Y-4876000D01*
X14859000Y-4876000D02*
X14909000Y-4826000D01*
X14859000Y-4776000D01*
X14809000Y-4826000D01*
X14859000Y-4876000D01*
X15113000Y-4876000D02*
X15163000Y-4826000D01*
X15113000Y-4776000D01*
X15063000Y-4826000D01*
X15113000Y-4876000D01*
X15367000Y-4876000D02*
X15417000Y-4826000D01*
X15367000Y-4776000D01*
X15317000Y-4826000D01*
X15367000Y-4876000D01*
X15621000Y-4876000D02*
X15671000Y-4826000D01*
X15621000Y-4776000D01*
X15571000Y-4826000D01*
X15621000Y-4876000D01*
X15875000Y-4876000D02*
X15925000Y-4826000D01*
X15875000Y-4776000D01*
X15825000Y-4826000D01*
X15875000Y-4876000D01*
X16508500Y-5316000D02*
X16558500Y-5266000D01*
X16508500Y-5216000D01*
X16458500Y-5266000D01*
X16508500Y-5316000D01*
X16762500Y-5316000D02*
X16812500Y-5266000D01*
X16762500Y-5216000D01*
X16712500Y-5266000D01*
X16762500Y-5316000D01*
X17016500Y-5316000D02*
X17066500Y-5266000D01*
X17016500Y-5216000D01*
X16966500Y-5266000D01*
X17016500Y-5316000D01*
D15*
X8686600Y-6578400D02*
X8788600Y-6680400D01*
X8788600Y-6578400D02*
X8686600Y-6680400D01*
X8788600Y-6629400D02*
G75*
G03*
X8788600Y-6629400I-51000J0D01*
G01*
X8686600Y-6832400D02*
X8788600Y-6934400D01*
X8788600Y-6832400D02*
X8686600Y-6934400D01*
X8788600Y-6883400D02*
G75*
G03*
X8788600Y-6883400I-51000J0D01*
G01*
X8686600Y-7086400D02*
X8788600Y-7188400D01*
X8788600Y-7086400D02*
X8686600Y-7188400D01*
X8788600Y-7137400D02*
G75*
G03*
X8788600Y-7137400I-51000J0D01*
G01*
X8699900Y-9296200D02*
X8801900Y-9398200D01*
X8801900Y-9296200D02*
X8699900Y-9398200D01*
X8801900Y-9347200D02*
G75*
G03*
X8801900Y-9347200I-51000J0D01*
G01*
X8699900Y-9550200D02*
X8801900Y-9652200D01*
X8801900Y-9550200D02*
X8699900Y-9652200D01*
X8801900Y-9601200D02*
G75*
G03*
X8801900Y-9601200I-51000J0D01*
G01*
X8699900Y-9804200D02*
X8801900Y-9906200D01*
X8801900Y-9804200D02*
X8699900Y-9906200D01*
X8801900Y-9855200D02*
G75*
G03*
X8801900Y-9855200I-51000J0D01*
G01*
X17728400Y-8241100D02*
X17830400Y-8343100D01*
X17830400Y-8241100D02*
X17728400Y-8343100D01*
X17830400Y-8292100D02*
G75*
G03*
X17830400Y-8292100I-51000J0D01*
G01*
X17728400Y-8495100D02*
X17830400Y-8597100D01*
X17830400Y-8495100D02*
X17728400Y-8597100D01*
X17830400Y-8546100D02*
G75*
G03*
X17830400Y-8546100I-51000J0D01*
G01*
X17728400Y-8749100D02*
X17830400Y-8851100D01*
X17830400Y-8749100D02*
X17728400Y-8851100D01*
X17830400Y-8800100D02*
G75*
G03*
X17830400Y-8800100I-51000J0D01*
G01*
X17729000Y-5586800D02*
X17831000Y-5688800D01*
X17831000Y-5586800D02*
X17729000Y-5688800D01*
X17831000Y-5637800D02*
G75*
G03*
X17831000Y-5637800I-51000J0D01*
G01*
X17729000Y-5840800D02*
X17831000Y-5942800D01*
X17831000Y-5840800D02*
X17729000Y-5942800D01*
X17831000Y-5891800D02*
G75*
G03*
X17831000Y-5891800I-51000J0D01*
G01*
X17729000Y-6094800D02*
X17831000Y-6196800D01*
X17831000Y-6094800D02*
X17729000Y-6196800D01*
X17831000Y-6145800D02*
G75*
G03*
X17831000Y-6145800I-51000J0D01*
G01*
X17729000Y-6807000D02*
X17831000Y-6909000D01*
X17831000Y-6807000D02*
X17729000Y-6909000D01*
X17831000Y-6858000D02*
G75*
G03*
X17831000Y-6858000I-51000J0D01*
G01*
X17729000Y-7061000D02*
X17831000Y-7163000D01*
X17831000Y-7061000D02*
X17729000Y-7163000D01*
X17831000Y-7112000D02*
G75*
G03*
X17831000Y-7112000I-51000J0D01*
G01*
X17729000Y-7315000D02*
X17831000Y-7417000D01*
X17831000Y-7315000D02*
X17729000Y-7417000D01*
X17831000Y-7366000D02*
G75*
G03*
X17831000Y-7366000I-51000J0D01*
G01*
D16*
X9330300Y-7742800D02*
X9440300Y-7852800D01*
X9440300Y-7742800D02*
X9330300Y-7852800D01*
X9385300Y-7742800D02*
X9385300Y-7852800D01*
X9330300Y-7797800D02*
X9440300Y-7797800D01*
X9330300Y-8758800D02*
X9440300Y-8868800D01*
X9440300Y-8758800D02*
X9330300Y-8868800D01*
X9385300Y-8758800D02*
X9385300Y-8868800D01*
X9330300Y-8813800D02*
X9440300Y-8813800D01*
X15350100Y-9457300D02*
X15460100Y-9567300D01*
X15460100Y-9457300D02*
X15350100Y-9567300D01*
X15405100Y-9457300D02*
X15405100Y-9567300D01*
X15350100Y-9512300D02*
X15460100Y-9512300D01*
X15350100Y-10473300D02*
X15460100Y-10583300D01*
X15460100Y-10473300D02*
X15350100Y-10583300D01*
X15405100Y-10473300D02*
X15405100Y-10583300D01*
X15350100Y-10528300D02*
X15460100Y-10528300D01*
X15845400Y-7552300D02*
X15955400Y-7662300D01*
X15955400Y-7552300D02*
X15845400Y-7662300D01*
X15900400Y-7552300D02*
X15900400Y-7662300D01*
X15845400Y-7607300D02*
X15955400Y-7607300D01*
X15934300Y-8581000D02*
X16044300Y-8691000D01*
X16044300Y-8581000D02*
X15934300Y-8691000D01*
X15989300Y-8581000D02*
X15989300Y-8691000D01*
X15934300Y-8636000D02*
X16044300Y-8636000D01*
X15934300Y-9597000D02*
X16044300Y-9707000D01*
X16044300Y-9597000D02*
X15934300Y-9707000D01*
X15989300Y-9597000D02*
X15989300Y-9707000D01*
X15934300Y-9652000D02*
X16044300Y-9652000D01*
X16861400Y-7552300D02*
X16971400Y-7662300D01*
X16971400Y-7552300D02*
X16861400Y-7662300D01*
X16916400Y-7552300D02*
X16916400Y-7662300D01*
X16861400Y-7607300D02*
X16971400Y-7607300D01*
D17*
X16970700Y-12017700D02*
X17090700Y-12137700D01*
X17090700Y-12017700D02*
X16970700Y-12137700D01*
X17073127Y-12120127D02*
X17073127Y-12035273D01*
X16988273Y-12035273D01*
X16988273Y-12120127D01*
X17073127Y-12120127D01*
X17707300Y-11776400D02*
X17827300Y-11896400D01*
X17827300Y-11776400D02*
X17707300Y-11896400D01*
X17809727Y-11878827D02*
X17809727Y-11793973D01*
X17724873Y-11793973D01*
X17724873Y-11878827D01*
X17809727Y-11878827D01*
X17720000Y-9338000D02*
X17840000Y-9458000D01*
X17840000Y-9338000D02*
X17720000Y-9458000D01*
X17822427Y-9440427D02*
X17822427Y-9355573D01*
X17737573Y-9355573D01*
X17737573Y-9440427D01*
X17822427Y-9440427D01*
X17720000Y-10087300D02*
X17840000Y-10207300D01*
X17840000Y-10087300D02*
X17720000Y-10207300D01*
X17822427Y-10189727D02*
X17822427Y-10104873D01*
X17737573Y-10104873D01*
X17737573Y-10189727D01*
X17822427Y-10189727D01*
X17720000Y-10976300D02*
X17840000Y-11096300D01*
X17840000Y-10976300D02*
X17720000Y-11096300D01*
X17822427Y-11078727D02*
X17822427Y-10993873D01*
X17737573Y-10993873D01*
X17737573Y-11078727D01*
X17822427Y-11078727D01*
D18*
X9103500Y-10132500D02*
X9260500Y-10289500D01*
X9260500Y-10132500D02*
X9103500Y-10289500D01*
X9182000Y-10289500D02*
X9260500Y-10211000D01*
X9182000Y-10132500D01*
X9103500Y-10211000D01*
X9182000Y-10289500D01*
X9103500Y-11758500D02*
X9260500Y-11915500D01*
X9260500Y-11758500D02*
X9103500Y-11915500D01*
X9182000Y-11915500D02*
X9260500Y-11837000D01*
X9182000Y-11758500D01*
X9103500Y-11837000D01*
X9182000Y-11915500D01*
X10640500Y-12202500D02*
X10797500Y-12359500D01*
X10797500Y-12202500D02*
X10640500Y-12359500D01*
X10719000Y-12359500D02*
X10797500Y-12281000D01*
X10719000Y-12202500D01*
X10640500Y-12281000D01*
X10719000Y-12359500D01*
X12266500Y-12202500D02*
X12423500Y-12359500D01*
X12423500Y-12202500D02*
X12266500Y-12359500D01*
X12345000Y-12359500D02*
X12423500Y-12281000D01*
X12345000Y-12202500D01*
X12266500Y-12281000D01*
X12345000Y-12359500D01*
D19*
X8496300Y-12324100D02*
X8496300Y-12644100D01*
X8336300Y-12484100D02*
X8656300Y-12484100D01*
X8656300Y-12484100D02*
G75*
G03*
X8656300Y-12484100I-160000J0D01*
G01*
X8623300Y-5402600D02*
X8623300Y-5722600D01*
X8463300Y-5562600D02*
X8783300Y-5562600D01*
X8783300Y-5562600D02*
G75*
G03*
X8783300Y-5562600I-160000J0D01*
G01*
X17564100Y-12362200D02*
X17564100Y-12682200D01*
X17404100Y-12522200D02*
X17724100Y-12522200D01*
X17724100Y-12522200D02*
G75*
G03*
X17724100Y-12522200I-160000J0D01*
G01*
X17627600Y-4577100D02*
X17627600Y-4897100D01*
X17467600Y-4737100D02*
X17787600Y-4737100D01*
X17787600Y-4737100D02*
G75*
G03*
X17787600Y-4737100I-160000J0D01*
G01*
D10*
X257619Y-310476D02*
X257619Y-110476D01*
X305238Y-110476D01*
X333810Y-120000D01*
X352857Y-139048D01*
X362381Y-158095D01*
X371905Y-196190D01*
X371905Y-224762D01*
X362381Y-262857D01*
X352857Y-281905D01*
X333810Y-300952D01*
X305238Y-310476D01*
X257619Y-310476D01*
X457619Y-310476D02*
X457619Y-177143D01*
X457619Y-215238D02*
X467143Y-196190D01*
X476667Y-186667D01*
X495714Y-177143D01*
X514762Y-177143D01*
X581429Y-310476D02*
X581429Y-177143D01*
X581429Y-110476D02*
X571905Y-120000D01*
X581429Y-129524D01*
X590952Y-120000D01*
X581429Y-110476D01*
X581429Y-129524D01*
X705238Y-310476D02*
X686190Y-300952D01*
X676667Y-281905D01*
X676667Y-110476D01*
X810000Y-310476D02*
X790952Y-300952D01*
X781428Y-281905D01*
X781428Y-110476D01*
X1038571Y-310476D02*
X1038571Y-110476D01*
X1105238Y-253333D01*
X1171905Y-110476D01*
X1171905Y-310476D01*
X1352857Y-310476D02*
X1352857Y-205714D01*
X1343333Y-186667D01*
X1324286Y-177143D01*
X1286190Y-177143D01*
X1267143Y-186667D01*
X1352857Y-300952D02*
X1333810Y-310476D01*
X1286190Y-310476D01*
X1267143Y-300952D01*
X1257619Y-281905D01*
X1257619Y-262857D01*
X1267143Y-243809D01*
X1286190Y-234286D01*
X1333810Y-234286D01*
X1352857Y-224762D01*
X1448095Y-177143D02*
X1448095Y-377143D01*
X1448095Y-186667D02*
X1467143Y-177143D01*
X1505238Y-177143D01*
X1524286Y-186667D01*
X1533809Y-196190D01*
X1543333Y-215238D01*
X1543333Y-272381D01*
X1533809Y-291429D01*
X1524286Y-300952D01*
X1505238Y-310476D01*
X1467143Y-310476D01*
X1448095Y-300952D01*
X1629048Y-291429D02*
X1638571Y-300952D01*
X1629048Y-310476D01*
X1619524Y-300952D01*
X1629048Y-291429D01*
X1629048Y-310476D01*
X1629048Y-186667D02*
X1638571Y-196190D01*
X1629048Y-205714D01*
X1619524Y-196190D01*
X1629048Y-186667D01*
X1629048Y-205714D01*
D11*
X-40000Y-620000D02*
X0Y-660000D01*
X0Y-620000D02*
X-40000Y-660000D01*
D10*
X295714Y-530476D02*
X314762Y-530476D01*
X333810Y-540000D01*
X343333Y-549524D01*
X352857Y-568571D01*
X362381Y-606667D01*
X362381Y-654286D01*
X352857Y-692381D01*
X343333Y-711428D01*
X333810Y-720952D01*
X314762Y-730476D01*
X295714Y-730476D01*
X276667Y-720952D01*
X267143Y-711428D01*
X257619Y-692381D01*
X248095Y-654286D01*
X248095Y-606667D01*
X257619Y-568571D01*
X267143Y-549524D01*
X276667Y-540000D01*
X295714Y-530476D01*
X448095Y-711428D02*
X457619Y-720952D01*
X448095Y-730476D01*
X438571Y-720952D01*
X448095Y-711428D01*
X448095Y-730476D01*
X629048Y-597143D02*
X629048Y-730476D01*
X581429Y-520952D02*
X533810Y-663810D01*
X657619Y-663810D01*
X771905Y-530476D02*
X790952Y-530476D01*
X810000Y-540000D01*
X819524Y-549524D01*
X829048Y-568571D01*
X838571Y-606667D01*
X838571Y-654286D01*
X829048Y-692381D01*
X819524Y-711428D01*
X810000Y-720952D01*
X790952Y-730476D01*
X771905Y-730476D01*
X752857Y-720952D01*
X743333Y-711428D01*
X733809Y-692381D01*
X724286Y-654286D01*
X724286Y-606667D01*
X733809Y-568571D01*
X743333Y-549524D01*
X752857Y-540000D01*
X771905Y-530476D01*
X962381Y-530476D02*
X981428Y-530476D01*
X1000476Y-540000D01*
X1010000Y-549524D01*
X1019524Y-568571D01*
X1029048Y-606667D01*
X1029048Y-654286D01*
X1019524Y-692381D01*
X1010000Y-711428D01*
X1000476Y-720952D01*
X981428Y-730476D01*
X962381Y-730476D01*
X943333Y-720952D01*
X933809Y-711428D01*
X924286Y-692381D01*
X914762Y-654286D01*
X914762Y-606667D01*
X924286Y-568571D01*
X933809Y-549524D01*
X943333Y-540000D01*
X962381Y-530476D01*
X1114762Y-730476D02*
X1114762Y-597143D01*
X1114762Y-616190D02*
X1124286Y-606667D01*
X1143333Y-597143D01*
X1171905Y-597143D01*
X1190952Y-606667D01*
X1200476Y-625714D01*
X1200476Y-730476D01*
X1200476Y-625714D02*
X1210000Y-606667D01*
X1229048Y-597143D01*
X1257619Y-597143D01*
X1276667Y-606667D01*
X1286190Y-625714D01*
X1286190Y-730476D01*
X1381429Y-730476D02*
X1381429Y-597143D01*
X1381429Y-616190D02*
X1390952Y-606667D01*
X1410000Y-597143D01*
X1438571Y-597143D01*
X1457619Y-606667D01*
X1467143Y-625714D01*
X1467143Y-730476D01*
X1467143Y-625714D02*
X1476667Y-606667D01*
X1495714Y-597143D01*
X1524286Y-597143D01*
X1543333Y-606667D01*
X1552857Y-625714D01*
X1552857Y-730476D01*
X1943333Y-520952D02*
X1771905Y-778095D01*
X2200476Y-530476D02*
X2219524Y-530476D01*
X2238571Y-540000D01*
X2248095Y-549524D01*
X2257619Y-568571D01*
X2267143Y-606667D01*
X2267143Y-654286D01*
X2257619Y-692381D01*
X2248095Y-711428D01*
X2238571Y-720952D01*
X2219524Y-730476D01*
X2200476Y-730476D01*
X2181429Y-720952D01*
X2171905Y-711428D01*
X2162381Y-692381D01*
X2152857Y-654286D01*
X2152857Y-606667D01*
X2162381Y-568571D01*
X2171905Y-549524D01*
X2181429Y-540000D01*
X2200476Y-530476D01*
X2352857Y-711428D02*
X2362381Y-720952D01*
X2352857Y-730476D01*
X2343333Y-720952D01*
X2352857Y-711428D01*
X2352857Y-730476D01*
X2486190Y-530476D02*
X2505238Y-530476D01*
X2524286Y-540000D01*
X2533810Y-549524D01*
X2543333Y-568571D01*
X2552857Y-606667D01*
X2552857Y-654286D01*
X2543333Y-692381D01*
X2533810Y-711428D01*
X2524286Y-720952D01*
X2505238Y-730476D01*
X2486190Y-730476D01*
X2467143Y-720952D01*
X2457619Y-711428D01*
X2448095Y-692381D01*
X2438571Y-654286D01*
X2438571Y-606667D01*
X2448095Y-568571D01*
X2457619Y-549524D01*
X2467143Y-540000D01*
X2486190Y-530476D01*
X2743333Y-730476D02*
X2629048Y-730476D01*
X2686190Y-730476D02*
X2686190Y-530476D01*
X2667143Y-559048D01*
X2648095Y-578095D01*
X2629048Y-587619D01*
X2924286Y-530476D02*
X2829048Y-530476D01*
X2819524Y-625714D01*
X2829048Y-616190D01*
X2848095Y-606667D01*
X2895714Y-606667D01*
X2914762Y-616190D01*
X2924286Y-625714D01*
X2933809Y-644762D01*
X2933809Y-692381D01*
X2924286Y-711428D01*
X2914762Y-720952D01*
X2895714Y-730476D01*
X2848095Y-730476D01*
X2829048Y-720952D01*
X2819524Y-711428D01*
X3000476Y-530476D02*
X3133809Y-530476D01*
X3048095Y-730476D01*
X3200476Y-530476D02*
X3200476Y-568571D01*
X3276667Y-530476D02*
X3276667Y-568571D01*
X3571905Y-806667D02*
X3562381Y-797143D01*
X3543333Y-768571D01*
X3533809Y-749524D01*
X3524286Y-720952D01*
X3514762Y-673333D01*
X3514762Y-635238D01*
X3524286Y-587619D01*
X3533809Y-559048D01*
X3543333Y-540000D01*
X3562381Y-511428D01*
X3571905Y-501905D01*
X3752857Y-730476D02*
X3638571Y-730476D01*
X3695714Y-730476D02*
X3695714Y-530476D01*
X3676667Y-559048D01*
X3657619Y-578095D01*
X3638571Y-587619D01*
X3924286Y-597143D02*
X3924286Y-730476D01*
X3876667Y-520952D02*
X3829048Y-663810D01*
X3952857Y-663810D01*
X4114762Y-597143D02*
X4114762Y-730476D01*
X4067143Y-520952D02*
X4019524Y-663810D01*
X4143333Y-663810D01*
X4371905Y-730476D02*
X4371905Y-530476D01*
X4457619Y-730476D02*
X4457619Y-625714D01*
X4448095Y-606667D01*
X4429048Y-597143D01*
X4400476Y-597143D01*
X4381429Y-606667D01*
X4371905Y-616190D01*
X4581429Y-730476D02*
X4562381Y-720952D01*
X4552857Y-711428D01*
X4543333Y-692381D01*
X4543333Y-635238D01*
X4552857Y-616190D01*
X4562381Y-606667D01*
X4581429Y-597143D01*
X4610000Y-597143D01*
X4629048Y-606667D01*
X4638571Y-616190D01*
X4648095Y-635238D01*
X4648095Y-692381D01*
X4638571Y-711428D01*
X4629048Y-720952D01*
X4610000Y-730476D01*
X4581429Y-730476D01*
X4762381Y-730476D02*
X4743333Y-720952D01*
X4733810Y-701905D01*
X4733810Y-530476D01*
X4914762Y-720952D02*
X4895714Y-730476D01*
X4857619Y-730476D01*
X4838571Y-720952D01*
X4829048Y-701905D01*
X4829048Y-625714D01*
X4838571Y-606667D01*
X4857619Y-597143D01*
X4895714Y-597143D01*
X4914762Y-606667D01*
X4924286Y-625714D01*
X4924286Y-644762D01*
X4829048Y-663810D01*
X5000476Y-720952D02*
X5019524Y-730476D01*
X5057619Y-730476D01*
X5076667Y-720952D01*
X5086190Y-701905D01*
X5086190Y-692381D01*
X5076667Y-673333D01*
X5057619Y-663810D01*
X5029048Y-663810D01*
X5010000Y-654286D01*
X5000476Y-635238D01*
X5000476Y-625714D01*
X5010000Y-606667D01*
X5029048Y-597143D01*
X5057619Y-597143D01*
X5076667Y-606667D01*
X5152857Y-806667D02*
X5162381Y-797143D01*
X5181429Y-768571D01*
X5190952Y-749524D01*
X5200476Y-720952D01*
X5210000Y-673333D01*
X5210000Y-635238D01*
X5200476Y-587619D01*
X5190952Y-559048D01*
X5181429Y-540000D01*
X5162381Y-511428D01*
X5152857Y-501905D01*
D12*
X0Y-904000D02*
G75*
G03*
X0Y-904000I-40000J0D01*
G01*
D10*
X295714Y-794476D02*
X314762Y-794476D01*
X333810Y-804000D01*
X343333Y-813524D01*
X352857Y-832571D01*
X362381Y-870667D01*
X362381Y-918286D01*
X352857Y-956381D01*
X343333Y-975428D01*
X333810Y-984952D01*
X314762Y-994476D01*
X295714Y-994476D01*
X276667Y-984952D01*
X267143Y-975428D01*
X257619Y-956381D01*
X248095Y-918286D01*
X248095Y-870667D01*
X257619Y-832571D01*
X267143Y-813524D01*
X276667Y-804000D01*
X295714Y-794476D01*
X448095Y-975428D02*
X457619Y-984952D01*
X448095Y-994476D01*
X438571Y-984952D01*
X448095Y-975428D01*
X448095Y-994476D01*
X571905Y-880190D02*
X552857Y-870667D01*
X543333Y-861143D01*
X533810Y-842095D01*
X533810Y-832571D01*
X543333Y-813524D01*
X552857Y-804000D01*
X571905Y-794476D01*
X610000Y-794476D01*
X629048Y-804000D01*
X638571Y-813524D01*
X648095Y-832571D01*
X648095Y-842095D01*
X638571Y-861143D01*
X629048Y-870667D01*
X610000Y-880190D01*
X571905Y-880190D01*
X552857Y-889714D01*
X543333Y-899238D01*
X533810Y-918286D01*
X533810Y-956381D01*
X543333Y-975428D01*
X552857Y-984952D01*
X571905Y-994476D01*
X610000Y-994476D01*
X629048Y-984952D01*
X638571Y-975428D01*
X648095Y-956381D01*
X648095Y-918286D01*
X638571Y-899238D01*
X629048Y-889714D01*
X610000Y-880190D01*
X771905Y-794476D02*
X790952Y-794476D01*
X810000Y-804000D01*
X819524Y-813524D01*
X829048Y-832571D01*
X838571Y-870667D01*
X838571Y-918286D01*
X829048Y-956381D01*
X819524Y-975428D01*
X810000Y-984952D01*
X790952Y-994476D01*
X771905Y-994476D01*
X752857Y-984952D01*
X743333Y-975428D01*
X733809Y-956381D01*
X724286Y-918286D01*
X724286Y-870667D01*
X733809Y-832571D01*
X743333Y-813524D01*
X752857Y-804000D01*
X771905Y-794476D01*
X962381Y-794476D02*
X981428Y-794476D01*
X1000476Y-804000D01*
X1010000Y-813524D01*
X1019524Y-832571D01*
X1029048Y-870667D01*
X1029048Y-918286D01*
X1019524Y-956381D01*
X1010000Y-975428D01*
X1000476Y-984952D01*
X981428Y-994476D01*
X962381Y-994476D01*
X943333Y-984952D01*
X933809Y-975428D01*
X924286Y-956381D01*
X914762Y-918286D01*
X914762Y-870667D01*
X924286Y-832571D01*
X933809Y-813524D01*
X943333Y-804000D01*
X962381Y-794476D01*
X1114762Y-994476D02*
X1114762Y-861143D01*
X1114762Y-880190D02*
X1124286Y-870667D01*
X1143333Y-861143D01*
X1171905Y-861143D01*
X1190952Y-870667D01*
X1200476Y-889714D01*
X1200476Y-994476D01*
X1200476Y-889714D02*
X1210000Y-870667D01*
X1229048Y-861143D01*
X1257619Y-861143D01*
X1276667Y-870667D01*
X1286190Y-889714D01*
X1286190Y-994476D01*
X1381429Y-994476D02*
X1381429Y-861143D01*
X1381429Y-880190D02*
X1390952Y-870667D01*
X1410000Y-861143D01*
X1438571Y-861143D01*
X1457619Y-870667D01*
X1467143Y-889714D01*
X1467143Y-994476D01*
X1467143Y-889714D02*
X1476667Y-870667D01*
X1495714Y-861143D01*
X1524286Y-861143D01*
X1543333Y-870667D01*
X1552857Y-889714D01*
X1552857Y-994476D01*
X1943333Y-784952D02*
X1771905Y-1042095D01*
X2200476Y-794476D02*
X2219524Y-794476D01*
X2238571Y-804000D01*
X2248095Y-813524D01*
X2257619Y-832571D01*
X2267143Y-870667D01*
X2267143Y-918286D01*
X2257619Y-956381D01*
X2248095Y-975428D01*
X2238571Y-984952D01*
X2219524Y-994476D01*
X2200476Y-994476D01*
X2181429Y-984952D01*
X2171905Y-975428D01*
X2162381Y-956381D01*
X2152857Y-918286D01*
X2152857Y-870667D01*
X2162381Y-832571D01*
X2171905Y-813524D01*
X2181429Y-804000D01*
X2200476Y-794476D01*
X2352857Y-975428D02*
X2362381Y-984952D01*
X2352857Y-994476D01*
X2343333Y-984952D01*
X2352857Y-975428D01*
X2352857Y-994476D01*
X2486190Y-794476D02*
X2505238Y-794476D01*
X2524286Y-804000D01*
X2533810Y-813524D01*
X2543333Y-832571D01*
X2552857Y-870667D01*
X2552857Y-918286D01*
X2543333Y-956381D01*
X2533810Y-975428D01*
X2524286Y-984952D01*
X2505238Y-994476D01*
X2486190Y-994476D01*
X2467143Y-984952D01*
X2457619Y-975428D01*
X2448095Y-956381D01*
X2438571Y-918286D01*
X2438571Y-870667D01*
X2448095Y-832571D01*
X2457619Y-813524D01*
X2467143Y-804000D01*
X2486190Y-794476D01*
X2619524Y-794476D02*
X2743333Y-794476D01*
X2676667Y-870667D01*
X2705238Y-870667D01*
X2724286Y-880190D01*
X2733810Y-889714D01*
X2743333Y-908762D01*
X2743333Y-956381D01*
X2733810Y-975428D01*
X2724286Y-984952D01*
X2705238Y-994476D01*
X2648095Y-994476D01*
X2629048Y-984952D01*
X2619524Y-975428D01*
X2933809Y-994476D02*
X2819524Y-994476D01*
X2876667Y-994476D02*
X2876667Y-794476D01*
X2857619Y-823048D01*
X2838571Y-842095D01*
X2819524Y-851619D01*
X3114762Y-794476D02*
X3019524Y-794476D01*
X3010000Y-889714D01*
X3019524Y-880190D01*
X3038571Y-870667D01*
X3086190Y-870667D01*
X3105238Y-880190D01*
X3114762Y-889714D01*
X3124286Y-908762D01*
X3124286Y-956381D01*
X3114762Y-975428D01*
X3105238Y-984952D01*
X3086190Y-994476D01*
X3038571Y-994476D01*
X3019524Y-984952D01*
X3010000Y-975428D01*
X3200476Y-794476D02*
X3200476Y-832571D01*
X3276667Y-794476D02*
X3276667Y-832571D01*
X3571905Y-1070667D02*
X3562381Y-1061143D01*
X3543333Y-1032571D01*
X3533809Y-1013524D01*
X3524286Y-984952D01*
X3514762Y-937333D01*
X3514762Y-899238D01*
X3524286Y-851619D01*
X3533809Y-823048D01*
X3543333Y-804000D01*
X3562381Y-775428D01*
X3571905Y-765905D01*
X3752857Y-994476D02*
X3638571Y-994476D01*
X3695714Y-994476D02*
X3695714Y-794476D01*
X3676667Y-823048D01*
X3657619Y-842095D01*
X3638571Y-851619D01*
X3819524Y-794476D02*
X3952857Y-794476D01*
X3867143Y-994476D01*
X4057619Y-880190D02*
X4038571Y-870667D01*
X4029048Y-861143D01*
X4019524Y-842095D01*
X4019524Y-832571D01*
X4029048Y-813524D01*
X4038571Y-804000D01*
X4057619Y-794476D01*
X4095714Y-794476D01*
X4114762Y-804000D01*
X4124286Y-813524D01*
X4133809Y-832571D01*
X4133809Y-842095D01*
X4124286Y-861143D01*
X4114762Y-870667D01*
X4095714Y-880190D01*
X4057619Y-880190D01*
X4038571Y-889714D01*
X4029048Y-899238D01*
X4019524Y-918286D01*
X4019524Y-956381D01*
X4029048Y-975428D01*
X4038571Y-984952D01*
X4057619Y-994476D01*
X4095714Y-994476D01*
X4114762Y-984952D01*
X4124286Y-975428D01*
X4133809Y-956381D01*
X4133809Y-918286D01*
X4124286Y-899238D01*
X4114762Y-889714D01*
X4095714Y-880190D01*
X4371905Y-994476D02*
X4371905Y-794476D01*
X4457619Y-994476D02*
X4457619Y-889714D01*
X4448095Y-870667D01*
X4429048Y-861143D01*
X4400476Y-861143D01*
X4381429Y-870667D01*
X4371905Y-880190D01*
X4581429Y-994476D02*
X4562381Y-984952D01*
X4552857Y-975428D01*
X4543333Y-956381D01*
X4543333Y-899238D01*
X4552857Y-880190D01*
X4562381Y-870667D01*
X4581429Y-861143D01*
X4610000Y-861143D01*
X4629048Y-870667D01*
X4638571Y-880190D01*
X4648095Y-899238D01*
X4648095Y-956381D01*
X4638571Y-975428D01*
X4629048Y-984952D01*
X4610000Y-994476D01*
X4581429Y-994476D01*
X4762381Y-994476D02*
X4743333Y-984952D01*
X4733810Y-965905D01*
X4733810Y-794476D01*
X4914762Y-984952D02*
X4895714Y-994476D01*
X4857619Y-994476D01*
X4838571Y-984952D01*
X4829048Y-965905D01*
X4829048Y-889714D01*
X4838571Y-870667D01*
X4857619Y-861143D01*
X4895714Y-861143D01*
X4914762Y-870667D01*
X4924286Y-889714D01*
X4924286Y-908762D01*
X4829048Y-927809D01*
X5000476Y-984952D02*
X5019524Y-994476D01*
X5057619Y-994476D01*
X5076667Y-984952D01*
X5086190Y-965905D01*
X5086190Y-956381D01*
X5076667Y-937333D01*
X5057619Y-927809D01*
X5029048Y-927809D01*
X5010000Y-918286D01*
X5000476Y-899238D01*
X5000476Y-889714D01*
X5010000Y-870667D01*
X5029048Y-861143D01*
X5057619Y-861143D01*
X5076667Y-870667D01*
X5152857Y-1070667D02*
X5162381Y-1061143D01*
X5181429Y-1032571D01*
X5190952Y-1013524D01*
X5200476Y-984952D01*
X5210000Y-937333D01*
X5210000Y-899238D01*
X5200476Y-851619D01*
X5190952Y-823048D01*
X5181429Y-804000D01*
X5162381Y-775428D01*
X5152857Y-765905D01*
D13*
X-44500Y-1123500D02*
X-44500Y-1212500D01*
X-89000Y-1168000D02*
X0Y-1168000D01*
D10*
X295714Y-1058476D02*
X314762Y-1058476D01*
X333810Y-1068000D01*
X343333Y-1077524D01*
X352857Y-1096571D01*
X362381Y-1134667D01*
X362381Y-1182286D01*
X352857Y-1220381D01*
X343333Y-1239429D01*
X333810Y-1248952D01*
X314762Y-1258476D01*
X295714Y-1258476D01*
X276667Y-1248952D01*
X267143Y-1239429D01*
X257619Y-1220381D01*
X248095Y-1182286D01*
X248095Y-1134667D01*
X257619Y-1096571D01*
X267143Y-1077524D01*
X276667Y-1068000D01*
X295714Y-1058476D01*
X448095Y-1239429D02*
X457619Y-1248952D01*
X448095Y-1258476D01*
X438571Y-1248952D01*
X448095Y-1239429D01*
X448095Y-1258476D01*
X571905Y-1144190D02*
X552857Y-1134667D01*
X543333Y-1125143D01*
X533810Y-1106095D01*
X533810Y-1096571D01*
X543333Y-1077524D01*
X552857Y-1068000D01*
X571905Y-1058476D01*
X610000Y-1058476D01*
X629048Y-1068000D01*
X638571Y-1077524D01*
X648095Y-1096571D01*
X648095Y-1106095D01*
X638571Y-1125143D01*
X629048Y-1134667D01*
X610000Y-1144190D01*
X571905Y-1144190D01*
X552857Y-1153714D01*
X543333Y-1163238D01*
X533810Y-1182286D01*
X533810Y-1220381D01*
X543333Y-1239429D01*
X552857Y-1248952D01*
X571905Y-1258476D01*
X610000Y-1258476D01*
X629048Y-1248952D01*
X638571Y-1239429D01*
X648095Y-1220381D01*
X648095Y-1182286D01*
X638571Y-1163238D01*
X629048Y-1153714D01*
X610000Y-1144190D01*
X743333Y-1258476D02*
X781428Y-1258476D01*
X800476Y-1248952D01*
X810000Y-1239429D01*
X829048Y-1210857D01*
X838571Y-1172762D01*
X838571Y-1096571D01*
X829048Y-1077524D01*
X819524Y-1068000D01*
X800476Y-1058476D01*
X762381Y-1058476D01*
X743333Y-1068000D01*
X733809Y-1077524D01*
X724286Y-1096571D01*
X724286Y-1144190D01*
X733809Y-1163238D01*
X743333Y-1172762D01*
X762381Y-1182286D01*
X800476Y-1182286D01*
X819524Y-1172762D01*
X829048Y-1163238D01*
X838571Y-1144190D01*
X962381Y-1058476D02*
X981428Y-1058476D01*
X1000476Y-1068000D01*
X1010000Y-1077524D01*
X1019524Y-1096571D01*
X1029048Y-1134667D01*
X1029048Y-1182286D01*
X1019524Y-1220381D01*
X1010000Y-1239429D01*
X1000476Y-1248952D01*
X981428Y-1258476D01*
X962381Y-1258476D01*
X943333Y-1248952D01*
X933809Y-1239429D01*
X924286Y-1220381D01*
X914762Y-1182286D01*
X914762Y-1134667D01*
X924286Y-1096571D01*
X933809Y-1077524D01*
X943333Y-1068000D01*
X962381Y-1058476D01*
X1114762Y-1258476D02*
X1114762Y-1125143D01*
X1114762Y-1144190D02*
X1124286Y-1134667D01*
X1143333Y-1125143D01*
X1171905Y-1125143D01*
X1190952Y-1134667D01*
X1200476Y-1153714D01*
X1200476Y-1258476D01*
X1200476Y-1153714D02*
X1210000Y-1134667D01*
X1229048Y-1125143D01*
X1257619Y-1125143D01*
X1276667Y-1134667D01*
X1286190Y-1153714D01*
X1286190Y-1258476D01*
X1381429Y-1258476D02*
X1381429Y-1125143D01*
X1381429Y-1144190D02*
X1390952Y-1134667D01*
X1410000Y-1125143D01*
X1438571Y-1125143D01*
X1457619Y-1134667D01*
X1467143Y-1153714D01*
X1467143Y-1258476D01*
X1467143Y-1153714D02*
X1476667Y-1134667D01*
X1495714Y-1125143D01*
X1524286Y-1125143D01*
X1543333Y-1134667D01*
X1552857Y-1153714D01*
X1552857Y-1258476D01*
X1943333Y-1048952D02*
X1771905Y-1306095D01*
X2200476Y-1058476D02*
X2219524Y-1058476D01*
X2238571Y-1068000D01*
X2248095Y-1077524D01*
X2257619Y-1096571D01*
X2267143Y-1134667D01*
X2267143Y-1182286D01*
X2257619Y-1220381D01*
X2248095Y-1239429D01*
X2238571Y-1248952D01*
X2219524Y-1258476D01*
X2200476Y-1258476D01*
X2181429Y-1248952D01*
X2171905Y-1239429D01*
X2162381Y-1220381D01*
X2152857Y-1182286D01*
X2152857Y-1134667D01*
X2162381Y-1096571D01*
X2171905Y-1077524D01*
X2181429Y-1068000D01*
X2200476Y-1058476D01*
X2352857Y-1239429D02*
X2362381Y-1248952D01*
X2352857Y-1258476D01*
X2343333Y-1248952D01*
X2352857Y-1239429D01*
X2352857Y-1258476D01*
X2486190Y-1058476D02*
X2505238Y-1058476D01*
X2524286Y-1068000D01*
X2533810Y-1077524D01*
X2543333Y-1096571D01*
X2552857Y-1134667D01*
X2552857Y-1182286D01*
X2543333Y-1220381D01*
X2533810Y-1239429D01*
X2524286Y-1248952D01*
X2505238Y-1258476D01*
X2486190Y-1258476D01*
X2467143Y-1248952D01*
X2457619Y-1239429D01*
X2448095Y-1220381D01*
X2438571Y-1182286D01*
X2438571Y-1134667D01*
X2448095Y-1096571D01*
X2457619Y-1077524D01*
X2467143Y-1068000D01*
X2486190Y-1058476D01*
X2619524Y-1058476D02*
X2743333Y-1058476D01*
X2676667Y-1134667D01*
X2705238Y-1134667D01*
X2724286Y-1144190D01*
X2733810Y-1153714D01*
X2743333Y-1172762D01*
X2743333Y-1220381D01*
X2733810Y-1239429D01*
X2724286Y-1248952D01*
X2705238Y-1258476D01*
X2648095Y-1258476D01*
X2629048Y-1248952D01*
X2619524Y-1239429D01*
X2924286Y-1058476D02*
X2829048Y-1058476D01*
X2819524Y-1153714D01*
X2829048Y-1144190D01*
X2848095Y-1134667D01*
X2895714Y-1134667D01*
X2914762Y-1144190D01*
X2924286Y-1153714D01*
X2933809Y-1172762D01*
X2933809Y-1220381D01*
X2924286Y-1239429D01*
X2914762Y-1248952D01*
X2895714Y-1258476D01*
X2848095Y-1258476D01*
X2829048Y-1248952D01*
X2819524Y-1239429D01*
X3057619Y-1058476D02*
X3076667Y-1058476D01*
X3095714Y-1068000D01*
X3105238Y-1077524D01*
X3114762Y-1096571D01*
X3124286Y-1134667D01*
X3124286Y-1182286D01*
X3114762Y-1220381D01*
X3105238Y-1239429D01*
X3095714Y-1248952D01*
X3076667Y-1258476D01*
X3057619Y-1258476D01*
X3038571Y-1248952D01*
X3029048Y-1239429D01*
X3019524Y-1220381D01*
X3010000Y-1182286D01*
X3010000Y-1134667D01*
X3019524Y-1096571D01*
X3029048Y-1077524D01*
X3038571Y-1068000D01*
X3057619Y-1058476D01*
X3200476Y-1058476D02*
X3200476Y-1096571D01*
X3276667Y-1058476D02*
X3276667Y-1096571D01*
X3571905Y-1334667D02*
X3562381Y-1325143D01*
X3543333Y-1296571D01*
X3533809Y-1277524D01*
X3524286Y-1248952D01*
X3514762Y-1201333D01*
X3514762Y-1163238D01*
X3524286Y-1115619D01*
X3533809Y-1087048D01*
X3543333Y-1068000D01*
X3562381Y-1039428D01*
X3571905Y-1029905D01*
X3752857Y-1258476D02*
X3638571Y-1258476D01*
X3695714Y-1258476D02*
X3695714Y-1058476D01*
X3676667Y-1087048D01*
X3657619Y-1106095D01*
X3638571Y-1115619D01*
X3924286Y-1058476D02*
X3886190Y-1058476D01*
X3867143Y-1068000D01*
X3857619Y-1077524D01*
X3838571Y-1106095D01*
X3829048Y-1144190D01*
X3829048Y-1220381D01*
X3838571Y-1239429D01*
X3848095Y-1248952D01*
X3867143Y-1258476D01*
X3905238Y-1258476D01*
X3924286Y-1248952D01*
X3933809Y-1239429D01*
X3943333Y-1220381D01*
X3943333Y-1172762D01*
X3933809Y-1153714D01*
X3924286Y-1144190D01*
X3905238Y-1134667D01*
X3867143Y-1134667D01*
X3848095Y-1144190D01*
X3838571Y-1153714D01*
X3829048Y-1172762D01*
X4181428Y-1258476D02*
X4181428Y-1058476D01*
X4267143Y-1258476D02*
X4267143Y-1153714D01*
X4257619Y-1134667D01*
X4238571Y-1125143D01*
X4210000Y-1125143D01*
X4190952Y-1134667D01*
X4181428Y-1144190D01*
X4390952Y-1258476D02*
X4371905Y-1248952D01*
X4362381Y-1239429D01*
X4352857Y-1220381D01*
X4352857Y-1163238D01*
X4362381Y-1144190D01*
X4371905Y-1134667D01*
X4390952Y-1125143D01*
X4419524Y-1125143D01*
X4438571Y-1134667D01*
X4448095Y-1144190D01*
X4457619Y-1163238D01*
X4457619Y-1220381D01*
X4448095Y-1239429D01*
X4438571Y-1248952D01*
X4419524Y-1258476D01*
X4390952Y-1258476D01*
X4571905Y-1258476D02*
X4552857Y-1248952D01*
X4543333Y-1229905D01*
X4543333Y-1058476D01*
X4724286Y-1248952D02*
X4705238Y-1258476D01*
X4667143Y-1258476D01*
X4648095Y-1248952D01*
X4638571Y-1229905D01*
X4638571Y-1153714D01*
X4648095Y-1134667D01*
X4667143Y-1125143D01*
X4705238Y-1125143D01*
X4724286Y-1134667D01*
X4733810Y-1153714D01*
X4733810Y-1172762D01*
X4638571Y-1191810D01*
X4810000Y-1248952D02*
X4829048Y-1258476D01*
X4867143Y-1258476D01*
X4886190Y-1248952D01*
X4895714Y-1229905D01*
X4895714Y-1220381D01*
X4886190Y-1201333D01*
X4867143Y-1191810D01*
X4838571Y-1191810D01*
X4819524Y-1182286D01*
X4810000Y-1163238D01*
X4810000Y-1153714D01*
X4819524Y-1134667D01*
X4838571Y-1125143D01*
X4867143Y-1125143D01*
X4886190Y-1134667D01*
X4962381Y-1334667D02*
X4971905Y-1325143D01*
X4990952Y-1296571D01*
X5000476Y-1277524D01*
X5010000Y-1248952D01*
X5019524Y-1201333D01*
X5019524Y-1163238D01*
X5010000Y-1115619D01*
X5000476Y-1087048D01*
X4990952Y-1068000D01*
X4971905Y-1039428D01*
X4962381Y-1029905D01*
D14*
X-14644Y-1467356D02*
X-14644Y-1396644D01*
X-85356Y-1396644D01*
X-85356Y-1467356D01*
X-14644Y-1467356D01*
D10*
X362381Y-1522476D02*
X248095Y-1522476D01*
X305238Y-1522476D02*
X305238Y-1322476D01*
X286190Y-1351048D01*
X267143Y-1370095D01*
X248095Y-1379619D01*
X448095Y-1503428D02*
X457619Y-1512952D01*
X448095Y-1522476D01*
X438571Y-1512952D01*
X448095Y-1503428D01*
X448095Y-1522476D01*
X581429Y-1322476D02*
X600476Y-1322476D01*
X619524Y-1332000D01*
X629048Y-1341524D01*
X638571Y-1360571D01*
X648095Y-1398667D01*
X648095Y-1446286D01*
X638571Y-1484381D01*
X629048Y-1503428D01*
X619524Y-1512952D01*
X600476Y-1522476D01*
X581429Y-1522476D01*
X562381Y-1512952D01*
X552857Y-1503428D01*
X543333Y-1484381D01*
X533810Y-1446286D01*
X533810Y-1398667D01*
X543333Y-1360571D01*
X552857Y-1341524D01*
X562381Y-1332000D01*
X581429Y-1322476D01*
X771905Y-1322476D02*
X790952Y-1322476D01*
X810000Y-1332000D01*
X819524Y-1341524D01*
X829048Y-1360571D01*
X838571Y-1398667D01*
X838571Y-1446286D01*
X829048Y-1484381D01*
X819524Y-1503428D01*
X810000Y-1512952D01*
X790952Y-1522476D01*
X771905Y-1522476D01*
X752857Y-1512952D01*
X743333Y-1503428D01*
X733809Y-1484381D01*
X724286Y-1446286D01*
X724286Y-1398667D01*
X733809Y-1360571D01*
X743333Y-1341524D01*
X752857Y-1332000D01*
X771905Y-1322476D01*
X962381Y-1322476D02*
X981428Y-1322476D01*
X1000476Y-1332000D01*
X1010000Y-1341524D01*
X1019524Y-1360571D01*
X1029048Y-1398667D01*
X1029048Y-1446286D01*
X1019524Y-1484381D01*
X1010000Y-1503428D01*
X1000476Y-1512952D01*
X981428Y-1522476D01*
X962381Y-1522476D01*
X943333Y-1512952D01*
X933809Y-1503428D01*
X924286Y-1484381D01*
X914762Y-1446286D01*
X914762Y-1398667D01*
X924286Y-1360571D01*
X933809Y-1341524D01*
X943333Y-1332000D01*
X962381Y-1322476D01*
X1114762Y-1522476D02*
X1114762Y-1389143D01*
X1114762Y-1408190D02*
X1124286Y-1398667D01*
X1143333Y-1389143D01*
X1171905Y-1389143D01*
X1190952Y-1398667D01*
X1200476Y-1417714D01*
X1200476Y-1522476D01*
X1200476Y-1417714D02*
X1210000Y-1398667D01*
X1229048Y-1389143D01*
X1257619Y-1389143D01*
X1276667Y-1398667D01*
X1286190Y-1417714D01*
X1286190Y-1522476D01*
X1381429Y-1522476D02*
X1381429Y-1389143D01*
X1381429Y-1408190D02*
X1390952Y-1398667D01*
X1410000Y-1389143D01*
X1438571Y-1389143D01*
X1457619Y-1398667D01*
X1467143Y-1417714D01*
X1467143Y-1522476D01*
X1467143Y-1417714D02*
X1476667Y-1398667D01*
X1495714Y-1389143D01*
X1524286Y-1389143D01*
X1543333Y-1398667D01*
X1552857Y-1417714D01*
X1552857Y-1522476D01*
X1943333Y-1312952D02*
X1771905Y-1570095D01*
X2200476Y-1322476D02*
X2219524Y-1322476D01*
X2238571Y-1332000D01*
X2248095Y-1341524D01*
X2257619Y-1360571D01*
X2267143Y-1398667D01*
X2267143Y-1446286D01*
X2257619Y-1484381D01*
X2248095Y-1503428D01*
X2238571Y-1512952D01*
X2219524Y-1522476D01*
X2200476Y-1522476D01*
X2181429Y-1512952D01*
X2171905Y-1503428D01*
X2162381Y-1484381D01*
X2152857Y-1446286D01*
X2152857Y-1398667D01*
X2162381Y-1360571D01*
X2171905Y-1341524D01*
X2181429Y-1332000D01*
X2200476Y-1322476D01*
X2352857Y-1503428D02*
X2362381Y-1512952D01*
X2352857Y-1522476D01*
X2343333Y-1512952D01*
X2352857Y-1503428D01*
X2352857Y-1522476D01*
X2486190Y-1322476D02*
X2505238Y-1322476D01*
X2524286Y-1332000D01*
X2533810Y-1341524D01*
X2543333Y-1360571D01*
X2552857Y-1398667D01*
X2552857Y-1446286D01*
X2543333Y-1484381D01*
X2533810Y-1503428D01*
X2524286Y-1512952D01*
X2505238Y-1522476D01*
X2486190Y-1522476D01*
X2467143Y-1512952D01*
X2457619Y-1503428D01*
X2448095Y-1484381D01*
X2438571Y-1446286D01*
X2438571Y-1398667D01*
X2448095Y-1360571D01*
X2457619Y-1341524D01*
X2467143Y-1332000D01*
X2486190Y-1322476D01*
X2619524Y-1322476D02*
X2743333Y-1322476D01*
X2676667Y-1398667D01*
X2705238Y-1398667D01*
X2724286Y-1408190D01*
X2733810Y-1417714D01*
X2743333Y-1436762D01*
X2743333Y-1484381D01*
X2733810Y-1503428D01*
X2724286Y-1512952D01*
X2705238Y-1522476D01*
X2648095Y-1522476D01*
X2629048Y-1512952D01*
X2619524Y-1503428D01*
X2838571Y-1522476D02*
X2876667Y-1522476D01*
X2895714Y-1512952D01*
X2905238Y-1503428D01*
X2924286Y-1474857D01*
X2933809Y-1436762D01*
X2933809Y-1360571D01*
X2924286Y-1341524D01*
X2914762Y-1332000D01*
X2895714Y-1322476D01*
X2857619Y-1322476D01*
X2838571Y-1332000D01*
X2829048Y-1341524D01*
X2819524Y-1360571D01*
X2819524Y-1408190D01*
X2829048Y-1427238D01*
X2838571Y-1436762D01*
X2857619Y-1446286D01*
X2895714Y-1446286D01*
X2914762Y-1436762D01*
X2924286Y-1427238D01*
X2933809Y-1408190D01*
X3105238Y-1389143D02*
X3105238Y-1522476D01*
X3057619Y-1312952D02*
X3010000Y-1455809D01*
X3133809Y-1455809D01*
X3200476Y-1322476D02*
X3200476Y-1360571D01*
X3276667Y-1322476D02*
X3276667Y-1360571D01*
X3571905Y-1598667D02*
X3562381Y-1589143D01*
X3543333Y-1560571D01*
X3533809Y-1541524D01*
X3524286Y-1512952D01*
X3514762Y-1465333D01*
X3514762Y-1427238D01*
X3524286Y-1379619D01*
X3533809Y-1351048D01*
X3543333Y-1332000D01*
X3562381Y-1303429D01*
X3571905Y-1293905D01*
X3638571Y-1341524D02*
X3648095Y-1332000D01*
X3667143Y-1322476D01*
X3714762Y-1322476D01*
X3733809Y-1332000D01*
X3743333Y-1341524D01*
X3752857Y-1360571D01*
X3752857Y-1379619D01*
X3743333Y-1408190D01*
X3629048Y-1522476D01*
X3752857Y-1522476D01*
X3990952Y-1522476D02*
X3990952Y-1322476D01*
X4076667Y-1522476D02*
X4076667Y-1417714D01*
X4067143Y-1398667D01*
X4048095Y-1389143D01*
X4019524Y-1389143D01*
X4000476Y-1398667D01*
X3990952Y-1408190D01*
X4200476Y-1522476D02*
X4181428Y-1512952D01*
X4171905Y-1503428D01*
X4162381Y-1484381D01*
X4162381Y-1427238D01*
X4171905Y-1408190D01*
X4181428Y-1398667D01*
X4200476Y-1389143D01*
X4229048Y-1389143D01*
X4248095Y-1398667D01*
X4257619Y-1408190D01*
X4267143Y-1427238D01*
X4267143Y-1484381D01*
X4257619Y-1503428D01*
X4248095Y-1512952D01*
X4229048Y-1522476D01*
X4200476Y-1522476D01*
X4381429Y-1522476D02*
X4362381Y-1512952D01*
X4352857Y-1493905D01*
X4352857Y-1322476D01*
X4533810Y-1512952D02*
X4514762Y-1522476D01*
X4476667Y-1522476D01*
X4457619Y-1512952D01*
X4448095Y-1493905D01*
X4448095Y-1417714D01*
X4457619Y-1398667D01*
X4476667Y-1389143D01*
X4514762Y-1389143D01*
X4533810Y-1398667D01*
X4543333Y-1417714D01*
X4543333Y-1436762D01*
X4448095Y-1455809D01*
X4619524Y-1512952D02*
X4638571Y-1522476D01*
X4676667Y-1522476D01*
X4695714Y-1512952D01*
X4705238Y-1493905D01*
X4705238Y-1484381D01*
X4695714Y-1465333D01*
X4676667Y-1455809D01*
X4648095Y-1455809D01*
X4629048Y-1446286D01*
X4619524Y-1427238D01*
X4619524Y-1417714D01*
X4629048Y-1398667D01*
X4648095Y-1389143D01*
X4676667Y-1389143D01*
X4695714Y-1398667D01*
X4771905Y-1598667D02*
X4781429Y-1589143D01*
X4800476Y-1560571D01*
X4810000Y-1541524D01*
X4819524Y-1512952D01*
X4829048Y-1465333D01*
X4829048Y-1427238D01*
X4819524Y-1379619D01*
X4810000Y-1351048D01*
X4800476Y-1332000D01*
X4781429Y-1303429D01*
X4771905Y-1293905D01*
D14*
X-50000Y-1746000D02*
X0Y-1696000D01*
X-50000Y-1646000D01*
X-100000Y-1696000D01*
X-50000Y-1746000D01*
D10*
X362381Y-1786476D02*
X248095Y-1786476D01*
X305238Y-1786476D02*
X305238Y-1586476D01*
X286190Y-1615048D01*
X267143Y-1634095D01*
X248095Y-1643619D01*
X448095Y-1767428D02*
X457619Y-1776952D01*
X448095Y-1786476D01*
X438571Y-1776952D01*
X448095Y-1767428D01*
X448095Y-1786476D01*
X581429Y-1586476D02*
X600476Y-1586476D01*
X619524Y-1596000D01*
X629048Y-1605524D01*
X638571Y-1624571D01*
X648095Y-1662667D01*
X648095Y-1710286D01*
X638571Y-1748381D01*
X629048Y-1767428D01*
X619524Y-1776952D01*
X600476Y-1786476D01*
X581429Y-1786476D01*
X562381Y-1776952D01*
X552857Y-1767428D01*
X543333Y-1748381D01*
X533810Y-1710286D01*
X533810Y-1662667D01*
X543333Y-1624571D01*
X552857Y-1605524D01*
X562381Y-1596000D01*
X581429Y-1586476D01*
X771905Y-1586476D02*
X790952Y-1586476D01*
X810000Y-1596000D01*
X819524Y-1605524D01*
X829048Y-1624571D01*
X838571Y-1662667D01*
X838571Y-1710286D01*
X829048Y-1748381D01*
X819524Y-1767428D01*
X810000Y-1776952D01*
X790952Y-1786476D01*
X771905Y-1786476D01*
X752857Y-1776952D01*
X743333Y-1767428D01*
X733809Y-1748381D01*
X724286Y-1710286D01*
X724286Y-1662667D01*
X733809Y-1624571D01*
X743333Y-1605524D01*
X752857Y-1596000D01*
X771905Y-1586476D01*
X962381Y-1586476D02*
X981428Y-1586476D01*
X1000476Y-1596000D01*
X1010000Y-1605524D01*
X1019524Y-1624571D01*
X1029048Y-1662667D01*
X1029048Y-1710286D01*
X1019524Y-1748381D01*
X1010000Y-1767428D01*
X1000476Y-1776952D01*
X981428Y-1786476D01*
X962381Y-1786476D01*
X943333Y-1776952D01*
X933809Y-1767428D01*
X924286Y-1748381D01*
X914762Y-1710286D01*
X914762Y-1662667D01*
X924286Y-1624571D01*
X933809Y-1605524D01*
X943333Y-1596000D01*
X962381Y-1586476D01*
X1114762Y-1786476D02*
X1114762Y-1653143D01*
X1114762Y-1672190D02*
X1124286Y-1662667D01*
X1143333Y-1653143D01*
X1171905Y-1653143D01*
X1190952Y-1662667D01*
X1200476Y-1681714D01*
X1200476Y-1786476D01*
X1200476Y-1681714D02*
X1210000Y-1662667D01*
X1229048Y-1653143D01*
X1257619Y-1653143D01*
X1276667Y-1662667D01*
X1286190Y-1681714D01*
X1286190Y-1786476D01*
X1381429Y-1786476D02*
X1381429Y-1653143D01*
X1381429Y-1672190D02*
X1390952Y-1662667D01*
X1410000Y-1653143D01*
X1438571Y-1653143D01*
X1457619Y-1662667D01*
X1467143Y-1681714D01*
X1467143Y-1786476D01*
X1467143Y-1681714D02*
X1476667Y-1662667D01*
X1495714Y-1653143D01*
X1524286Y-1653143D01*
X1543333Y-1662667D01*
X1552857Y-1681714D01*
X1552857Y-1786476D01*
X1943333Y-1576952D02*
X1771905Y-1834095D01*
X2200476Y-1586476D02*
X2219524Y-1586476D01*
X2238571Y-1596000D01*
X2248095Y-1605524D01*
X2257619Y-1624571D01*
X2267143Y-1662667D01*
X2267143Y-1710286D01*
X2257619Y-1748381D01*
X2248095Y-1767428D01*
X2238571Y-1776952D01*
X2219524Y-1786476D01*
X2200476Y-1786476D01*
X2181429Y-1776952D01*
X2171905Y-1767428D01*
X2162381Y-1748381D01*
X2152857Y-1710286D01*
X2152857Y-1662667D01*
X2162381Y-1624571D01*
X2171905Y-1605524D01*
X2181429Y-1596000D01*
X2200476Y-1586476D01*
X2352857Y-1767428D02*
X2362381Y-1776952D01*
X2352857Y-1786476D01*
X2343333Y-1776952D01*
X2352857Y-1767428D01*
X2352857Y-1786476D01*
X2486190Y-1586476D02*
X2505238Y-1586476D01*
X2524286Y-1596000D01*
X2533810Y-1605524D01*
X2543333Y-1624571D01*
X2552857Y-1662667D01*
X2552857Y-1710286D01*
X2543333Y-1748381D01*
X2533810Y-1767428D01*
X2524286Y-1776952D01*
X2505238Y-1786476D01*
X2486190Y-1786476D01*
X2467143Y-1776952D01*
X2457619Y-1767428D01*
X2448095Y-1748381D01*
X2438571Y-1710286D01*
X2438571Y-1662667D01*
X2448095Y-1624571D01*
X2457619Y-1605524D01*
X2467143Y-1596000D01*
X2486190Y-1586476D01*
X2619524Y-1586476D02*
X2743333Y-1586476D01*
X2676667Y-1662667D01*
X2705238Y-1662667D01*
X2724286Y-1672190D01*
X2733810Y-1681714D01*
X2743333Y-1700762D01*
X2743333Y-1748381D01*
X2733810Y-1767428D01*
X2724286Y-1776952D01*
X2705238Y-1786476D01*
X2648095Y-1786476D01*
X2629048Y-1776952D01*
X2619524Y-1767428D01*
X2838571Y-1786476D02*
X2876667Y-1786476D01*
X2895714Y-1776952D01*
X2905238Y-1767428D01*
X2924286Y-1738857D01*
X2933809Y-1700762D01*
X2933809Y-1624571D01*
X2924286Y-1605524D01*
X2914762Y-1596000D01*
X2895714Y-1586476D01*
X2857619Y-1586476D01*
X2838571Y-1596000D01*
X2829048Y-1605524D01*
X2819524Y-1624571D01*
X2819524Y-1672190D01*
X2829048Y-1691238D01*
X2838571Y-1700762D01*
X2857619Y-1710286D01*
X2895714Y-1710286D01*
X2914762Y-1700762D01*
X2924286Y-1691238D01*
X2933809Y-1672190D01*
X3105238Y-1653143D02*
X3105238Y-1786476D01*
X3057619Y-1576952D02*
X3010000Y-1719809D01*
X3133809Y-1719809D01*
X3200476Y-1586476D02*
X3200476Y-1624571D01*
X3276667Y-1586476D02*
X3276667Y-1624571D01*
X3571905Y-1862667D02*
X3562381Y-1853143D01*
X3543333Y-1824571D01*
X3533809Y-1805524D01*
X3524286Y-1776952D01*
X3514762Y-1729333D01*
X3514762Y-1691238D01*
X3524286Y-1643619D01*
X3533809Y-1615048D01*
X3543333Y-1596000D01*
X3562381Y-1567428D01*
X3571905Y-1557905D01*
X3629048Y-1586476D02*
X3752857Y-1586476D01*
X3686190Y-1662667D01*
X3714762Y-1662667D01*
X3733809Y-1672190D01*
X3743333Y-1681714D01*
X3752857Y-1700762D01*
X3752857Y-1748381D01*
X3743333Y-1767428D01*
X3733809Y-1776952D01*
X3714762Y-1786476D01*
X3657619Y-1786476D01*
X3638571Y-1776952D01*
X3629048Y-1767428D01*
X3933809Y-1586476D02*
X3838571Y-1586476D01*
X3829048Y-1681714D01*
X3838571Y-1672190D01*
X3857619Y-1662667D01*
X3905238Y-1662667D01*
X3924286Y-1672190D01*
X3933809Y-1681714D01*
X3943333Y-1700762D01*
X3943333Y-1748381D01*
X3933809Y-1767428D01*
X3924286Y-1776952D01*
X3905238Y-1786476D01*
X3857619Y-1786476D01*
X3838571Y-1776952D01*
X3829048Y-1767428D01*
X4181428Y-1786476D02*
X4181428Y-1586476D01*
X4267143Y-1786476D02*
X4267143Y-1681714D01*
X4257619Y-1662667D01*
X4238571Y-1653143D01*
X4210000Y-1653143D01*
X4190952Y-1662667D01*
X4181428Y-1672190D01*
X4390952Y-1786476D02*
X4371905Y-1776952D01*
X4362381Y-1767428D01*
X4352857Y-1748381D01*
X4352857Y-1691238D01*
X4362381Y-1672190D01*
X4371905Y-1662667D01*
X4390952Y-1653143D01*
X4419524Y-1653143D01*
X4438571Y-1662667D01*
X4448095Y-1672190D01*
X4457619Y-1691238D01*
X4457619Y-1748381D01*
X4448095Y-1767428D01*
X4438571Y-1776952D01*
X4419524Y-1786476D01*
X4390952Y-1786476D01*
X4571905Y-1786476D02*
X4552857Y-1776952D01*
X4543333Y-1757905D01*
X4543333Y-1586476D01*
X4724286Y-1776952D02*
X4705238Y-1786476D01*
X4667143Y-1786476D01*
X4648095Y-1776952D01*
X4638571Y-1757905D01*
X4638571Y-1681714D01*
X4648095Y-1662667D01*
X4667143Y-1653143D01*
X4705238Y-1653143D01*
X4724286Y-1662667D01*
X4733810Y-1681714D01*
X4733810Y-1700762D01*
X4638571Y-1719809D01*
X4810000Y-1776952D02*
X4829048Y-1786476D01*
X4867143Y-1786476D01*
X4886190Y-1776952D01*
X4895714Y-1757905D01*
X4895714Y-1748381D01*
X4886190Y-1729333D01*
X4867143Y-1719809D01*
X4838571Y-1719809D01*
X4819524Y-1710286D01*
X4810000Y-1691238D01*
X4810000Y-1681714D01*
X4819524Y-1662667D01*
X4838571Y-1653143D01*
X4867143Y-1653143D01*
X4886190Y-1662667D01*
X4962381Y-1862667D02*
X4971905Y-1853143D01*
X4990952Y-1824571D01*
X5000476Y-1805524D01*
X5010000Y-1776952D01*
X5019524Y-1729333D01*
X5019524Y-1691238D01*
X5010000Y-1643619D01*
X5000476Y-1615048D01*
X4990952Y-1596000D01*
X4971905Y-1567428D01*
X4962381Y-1557905D01*
D15*
X-102000Y-1909000D02*
X0Y-2011000D01*
X0Y-1909000D02*
X-102000Y-2011000D01*
X0Y-1960000D02*
G75*
G03*
X0Y-1960000I-51000J0D01*
G01*
D10*
X362381Y-2050476D02*
X248095Y-2050476D01*
X305238Y-2050476D02*
X305238Y-1850476D01*
X286190Y-1879048D01*
X267143Y-1898095D01*
X248095Y-1907619D01*
X448095Y-2031428D02*
X457619Y-2040952D01*
X448095Y-2050476D01*
X438571Y-2040952D01*
X448095Y-2031428D01*
X448095Y-2050476D01*
X581429Y-1850476D02*
X600476Y-1850476D01*
X619524Y-1860000D01*
X629048Y-1869524D01*
X638571Y-1888571D01*
X648095Y-1926667D01*
X648095Y-1974286D01*
X638571Y-2012381D01*
X629048Y-2031428D01*
X619524Y-2040952D01*
X600476Y-2050476D01*
X581429Y-2050476D01*
X562381Y-2040952D01*
X552857Y-2031428D01*
X543333Y-2012381D01*
X533810Y-1974286D01*
X533810Y-1926667D01*
X543333Y-1888571D01*
X552857Y-1869524D01*
X562381Y-1860000D01*
X581429Y-1850476D01*
X724286Y-1869524D02*
X733809Y-1860000D01*
X752857Y-1850476D01*
X800476Y-1850476D01*
X819524Y-1860000D01*
X829048Y-1869524D01*
X838571Y-1888571D01*
X838571Y-1907619D01*
X829048Y-1936190D01*
X714762Y-2050476D01*
X838571Y-2050476D01*
X962381Y-1850476D02*
X981428Y-1850476D01*
X1000476Y-1860000D01*
X1010000Y-1869524D01*
X1019524Y-1888571D01*
X1029048Y-1926667D01*
X1029048Y-1974286D01*
X1019524Y-2012381D01*
X1010000Y-2031428D01*
X1000476Y-2040952D01*
X981428Y-2050476D01*
X962381Y-2050476D01*
X943333Y-2040952D01*
X933809Y-2031428D01*
X924286Y-2012381D01*
X914762Y-1974286D01*
X914762Y-1926667D01*
X924286Y-1888571D01*
X933809Y-1869524D01*
X943333Y-1860000D01*
X962381Y-1850476D01*
X1114762Y-2050476D02*
X1114762Y-1917143D01*
X1114762Y-1936190D02*
X1124286Y-1926667D01*
X1143333Y-1917143D01*
X1171905Y-1917143D01*
X1190952Y-1926667D01*
X1200476Y-1945714D01*
X1200476Y-2050476D01*
X1200476Y-1945714D02*
X1210000Y-1926667D01*
X1229048Y-1917143D01*
X1257619Y-1917143D01*
X1276667Y-1926667D01*
X1286190Y-1945714D01*
X1286190Y-2050476D01*
X1381429Y-2050476D02*
X1381429Y-1917143D01*
X1381429Y-1936190D02*
X1390952Y-1926667D01*
X1410000Y-1917143D01*
X1438571Y-1917143D01*
X1457619Y-1926667D01*
X1467143Y-1945714D01*
X1467143Y-2050476D01*
X1467143Y-1945714D02*
X1476667Y-1926667D01*
X1495714Y-1917143D01*
X1524286Y-1917143D01*
X1543333Y-1926667D01*
X1552857Y-1945714D01*
X1552857Y-2050476D01*
X1943333Y-1840952D02*
X1771905Y-2098095D01*
X2200476Y-1850476D02*
X2219524Y-1850476D01*
X2238571Y-1860000D01*
X2248095Y-1869524D01*
X2257619Y-1888571D01*
X2267143Y-1926667D01*
X2267143Y-1974286D01*
X2257619Y-2012381D01*
X2248095Y-2031428D01*
X2238571Y-2040952D01*
X2219524Y-2050476D01*
X2200476Y-2050476D01*
X2181429Y-2040952D01*
X2171905Y-2031428D01*
X2162381Y-2012381D01*
X2152857Y-1974286D01*
X2152857Y-1926667D01*
X2162381Y-1888571D01*
X2171905Y-1869524D01*
X2181429Y-1860000D01*
X2200476Y-1850476D01*
X2352857Y-2031428D02*
X2362381Y-2040952D01*
X2352857Y-2050476D01*
X2343333Y-2040952D01*
X2352857Y-2031428D01*
X2352857Y-2050476D01*
X2486190Y-1850476D02*
X2505238Y-1850476D01*
X2524286Y-1860000D01*
X2533810Y-1869524D01*
X2543333Y-1888571D01*
X2552857Y-1926667D01*
X2552857Y-1974286D01*
X2543333Y-2012381D01*
X2533810Y-2031428D01*
X2524286Y-2040952D01*
X2505238Y-2050476D01*
X2486190Y-2050476D01*
X2467143Y-2040952D01*
X2457619Y-2031428D01*
X2448095Y-2012381D01*
X2438571Y-1974286D01*
X2438571Y-1926667D01*
X2448095Y-1888571D01*
X2457619Y-1869524D01*
X2467143Y-1860000D01*
X2486190Y-1850476D01*
X2724286Y-1917143D02*
X2724286Y-2050476D01*
X2676667Y-1840952D02*
X2629048Y-1983809D01*
X2752857Y-1983809D01*
X2867143Y-1850476D02*
X2886190Y-1850476D01*
X2905238Y-1860000D01*
X2914762Y-1869524D01*
X2924286Y-1888571D01*
X2933809Y-1926667D01*
X2933809Y-1974286D01*
X2924286Y-2012381D01*
X2914762Y-2031428D01*
X2905238Y-2040952D01*
X2886190Y-2050476D01*
X2867143Y-2050476D01*
X2848095Y-2040952D01*
X2838571Y-2031428D01*
X2829048Y-2012381D01*
X2819524Y-1974286D01*
X2819524Y-1926667D01*
X2829048Y-1888571D01*
X2838571Y-1869524D01*
X2848095Y-1860000D01*
X2867143Y-1850476D01*
X3010000Y-1869524D02*
X3019524Y-1860000D01*
X3038571Y-1850476D01*
X3086190Y-1850476D01*
X3105238Y-1860000D01*
X3114762Y-1869524D01*
X3124286Y-1888571D01*
X3124286Y-1907619D01*
X3114762Y-1936190D01*
X3000476Y-2050476D01*
X3124286Y-2050476D01*
X3200476Y-1850476D02*
X3200476Y-1888571D01*
X3276667Y-1850476D02*
X3276667Y-1888571D01*
X3571905Y-2126667D02*
X3562381Y-2117143D01*
X3543333Y-2088571D01*
X3533809Y-2069524D01*
X3524286Y-2040952D01*
X3514762Y-1993333D01*
X3514762Y-1955238D01*
X3524286Y-1907619D01*
X3533809Y-1879048D01*
X3543333Y-1860000D01*
X3562381Y-1831428D01*
X3571905Y-1821905D01*
X3752857Y-2050476D02*
X3638571Y-2050476D01*
X3695714Y-2050476D02*
X3695714Y-1850476D01*
X3676667Y-1879048D01*
X3657619Y-1898095D01*
X3638571Y-1907619D01*
X3933809Y-1850476D02*
X3838571Y-1850476D01*
X3829048Y-1945714D01*
X3838571Y-1936190D01*
X3857619Y-1926667D01*
X3905238Y-1926667D01*
X3924286Y-1936190D01*
X3933809Y-1945714D01*
X3943333Y-1964762D01*
X3943333Y-2012381D01*
X3933809Y-2031428D01*
X3924286Y-2040952D01*
X3905238Y-2050476D01*
X3857619Y-2050476D01*
X3838571Y-2040952D01*
X3829048Y-2031428D01*
X4181428Y-2050476D02*
X4181428Y-1850476D01*
X4267143Y-2050476D02*
X4267143Y-1945714D01*
X4257619Y-1926667D01*
X4238571Y-1917143D01*
X4210000Y-1917143D01*
X4190952Y-1926667D01*
X4181428Y-1936190D01*
X4390952Y-2050476D02*
X4371905Y-2040952D01*
X4362381Y-2031428D01*
X4352857Y-2012381D01*
X4352857Y-1955238D01*
X4362381Y-1936190D01*
X4371905Y-1926667D01*
X4390952Y-1917143D01*
X4419524Y-1917143D01*
X4438571Y-1926667D01*
X4448095Y-1936190D01*
X4457619Y-1955238D01*
X4457619Y-2012381D01*
X4448095Y-2031428D01*
X4438571Y-2040952D01*
X4419524Y-2050476D01*
X4390952Y-2050476D01*
X4571905Y-2050476D02*
X4552857Y-2040952D01*
X4543333Y-2021905D01*
X4543333Y-1850476D01*
X4724286Y-2040952D02*
X4705238Y-2050476D01*
X4667143Y-2050476D01*
X4648095Y-2040952D01*
X4638571Y-2021905D01*
X4638571Y-1945714D01*
X4648095Y-1926667D01*
X4667143Y-1917143D01*
X4705238Y-1917143D01*
X4724286Y-1926667D01*
X4733810Y-1945714D01*
X4733810Y-1964762D01*
X4638571Y-1983809D01*
X4810000Y-2040952D02*
X4829048Y-2050476D01*
X4867143Y-2050476D01*
X4886190Y-2040952D01*
X4895714Y-2021905D01*
X4895714Y-2012381D01*
X4886190Y-1993333D01*
X4867143Y-1983809D01*
X4838571Y-1983809D01*
X4819524Y-1974286D01*
X4810000Y-1955238D01*
X4810000Y-1945714D01*
X4819524Y-1926667D01*
X4838571Y-1917143D01*
X4867143Y-1917143D01*
X4886190Y-1926667D01*
X4962381Y-2126667D02*
X4971905Y-2117143D01*
X4990952Y-2088571D01*
X5000476Y-2069524D01*
X5010000Y-2040952D01*
X5019524Y-1993333D01*
X5019524Y-1955238D01*
X5010000Y-1907619D01*
X5000476Y-1879048D01*
X4990952Y-1860000D01*
X4971905Y-1831428D01*
X4962381Y-1821905D01*
D16*
X-110000Y-2169000D02*
X0Y-2279000D01*
X0Y-2169000D02*
X-110000Y-2279000D01*
X-55000Y-2169000D02*
X-55000Y-2279000D01*
X-110000Y-2224000D02*
X0Y-2224000D01*
D10*
X362381Y-2314476D02*
X248095Y-2314476D01*
X305238Y-2314476D02*
X305238Y-2114476D01*
X286190Y-2143048D01*
X267143Y-2162095D01*
X248095Y-2171619D01*
X448095Y-2295429D02*
X457619Y-2304952D01*
X448095Y-2314476D01*
X438571Y-2304952D01*
X448095Y-2295429D01*
X448095Y-2314476D01*
X648095Y-2314476D02*
X533810Y-2314476D01*
X590952Y-2314476D02*
X590952Y-2114476D01*
X571905Y-2143048D01*
X552857Y-2162095D01*
X533810Y-2171619D01*
X771905Y-2114476D02*
X790952Y-2114476D01*
X810000Y-2124000D01*
X819524Y-2133524D01*
X829048Y-2152571D01*
X838571Y-2190667D01*
X838571Y-2238286D01*
X829048Y-2276381D01*
X819524Y-2295429D01*
X810000Y-2304952D01*
X790952Y-2314476D01*
X771905Y-2314476D01*
X752857Y-2304952D01*
X743333Y-2295429D01*
X733809Y-2276381D01*
X724286Y-2238286D01*
X724286Y-2190667D01*
X733809Y-2152571D01*
X743333Y-2133524D01*
X752857Y-2124000D01*
X771905Y-2114476D01*
X962381Y-2114476D02*
X981428Y-2114476D01*
X1000476Y-2124000D01*
X1010000Y-2133524D01*
X1019524Y-2152571D01*
X1029048Y-2190667D01*
X1029048Y-2238286D01*
X1019524Y-2276381D01*
X1010000Y-2295429D01*
X1000476Y-2304952D01*
X981428Y-2314476D01*
X962381Y-2314476D01*
X943333Y-2304952D01*
X933809Y-2295429D01*
X924286Y-2276381D01*
X914762Y-2238286D01*
X914762Y-2190667D01*
X924286Y-2152571D01*
X933809Y-2133524D01*
X943333Y-2124000D01*
X962381Y-2114476D01*
X1114762Y-2314476D02*
X1114762Y-2181143D01*
X1114762Y-2200190D02*
X1124286Y-2190667D01*
X1143333Y-2181143D01*
X1171905Y-2181143D01*
X1190952Y-2190667D01*
X1200476Y-2209714D01*
X1200476Y-2314476D01*
X1200476Y-2209714D02*
X1210000Y-2190667D01*
X1229048Y-2181143D01*
X1257619Y-2181143D01*
X1276667Y-2190667D01*
X1286190Y-2209714D01*
X1286190Y-2314476D01*
X1381429Y-2314476D02*
X1381429Y-2181143D01*
X1381429Y-2200190D02*
X1390952Y-2190667D01*
X1410000Y-2181143D01*
X1438571Y-2181143D01*
X1457619Y-2190667D01*
X1467143Y-2209714D01*
X1467143Y-2314476D01*
X1467143Y-2209714D02*
X1476667Y-2190667D01*
X1495714Y-2181143D01*
X1524286Y-2181143D01*
X1543333Y-2190667D01*
X1552857Y-2209714D01*
X1552857Y-2314476D01*
X1943333Y-2104952D02*
X1771905Y-2362095D01*
X2200476Y-2114476D02*
X2219524Y-2114476D01*
X2238571Y-2124000D01*
X2248095Y-2133524D01*
X2257619Y-2152571D01*
X2267143Y-2190667D01*
X2267143Y-2238286D01*
X2257619Y-2276381D01*
X2248095Y-2295429D01*
X2238571Y-2304952D01*
X2219524Y-2314476D01*
X2200476Y-2314476D01*
X2181429Y-2304952D01*
X2171905Y-2295429D01*
X2162381Y-2276381D01*
X2152857Y-2238286D01*
X2152857Y-2190667D01*
X2162381Y-2152571D01*
X2171905Y-2133524D01*
X2181429Y-2124000D01*
X2200476Y-2114476D01*
X2352857Y-2295429D02*
X2362381Y-2304952D01*
X2352857Y-2314476D01*
X2343333Y-2304952D01*
X2352857Y-2295429D01*
X2352857Y-2314476D01*
X2486190Y-2114476D02*
X2505238Y-2114476D01*
X2524286Y-2124000D01*
X2533810Y-2133524D01*
X2543333Y-2152571D01*
X2552857Y-2190667D01*
X2552857Y-2238286D01*
X2543333Y-2276381D01*
X2533810Y-2295429D01*
X2524286Y-2304952D01*
X2505238Y-2314476D01*
X2486190Y-2314476D01*
X2467143Y-2304952D01*
X2457619Y-2295429D01*
X2448095Y-2276381D01*
X2438571Y-2238286D01*
X2438571Y-2190667D01*
X2448095Y-2152571D01*
X2457619Y-2133524D01*
X2467143Y-2124000D01*
X2486190Y-2114476D01*
X2724286Y-2181143D02*
X2724286Y-2314476D01*
X2676667Y-2104952D02*
X2629048Y-2247810D01*
X2752857Y-2247810D01*
X2810000Y-2114476D02*
X2933809Y-2114476D01*
X2867143Y-2190667D01*
X2895714Y-2190667D01*
X2914762Y-2200190D01*
X2924286Y-2209714D01*
X2933809Y-2228762D01*
X2933809Y-2276381D01*
X2924286Y-2295429D01*
X2914762Y-2304952D01*
X2895714Y-2314476D01*
X2838571Y-2314476D01*
X2819524Y-2304952D01*
X2810000Y-2295429D01*
X3000476Y-2114476D02*
X3124286Y-2114476D01*
X3057619Y-2190667D01*
X3086190Y-2190667D01*
X3105238Y-2200190D01*
X3114762Y-2209714D01*
X3124286Y-2228762D01*
X3124286Y-2276381D01*
X3114762Y-2295429D01*
X3105238Y-2304952D01*
X3086190Y-2314476D01*
X3029048Y-2314476D01*
X3010000Y-2304952D01*
X3000476Y-2295429D01*
X3200476Y-2114476D02*
X3200476Y-2152571D01*
X3276667Y-2114476D02*
X3276667Y-2152571D01*
X3571905Y-2390667D02*
X3562381Y-2381143D01*
X3543333Y-2352571D01*
X3533809Y-2333524D01*
X3524286Y-2304952D01*
X3514762Y-2257333D01*
X3514762Y-2219238D01*
X3524286Y-2171619D01*
X3533809Y-2143048D01*
X3543333Y-2124000D01*
X3562381Y-2095428D01*
X3571905Y-2085905D01*
X3676667Y-2200190D02*
X3657619Y-2190667D01*
X3648095Y-2181143D01*
X3638571Y-2162095D01*
X3638571Y-2152571D01*
X3648095Y-2133524D01*
X3657619Y-2124000D01*
X3676667Y-2114476D01*
X3714762Y-2114476D01*
X3733809Y-2124000D01*
X3743333Y-2133524D01*
X3752857Y-2152571D01*
X3752857Y-2162095D01*
X3743333Y-2181143D01*
X3733809Y-2190667D01*
X3714762Y-2200190D01*
X3676667Y-2200190D01*
X3657619Y-2209714D01*
X3648095Y-2219238D01*
X3638571Y-2238286D01*
X3638571Y-2276381D01*
X3648095Y-2295429D01*
X3657619Y-2304952D01*
X3676667Y-2314476D01*
X3714762Y-2314476D01*
X3733809Y-2304952D01*
X3743333Y-2295429D01*
X3752857Y-2276381D01*
X3752857Y-2238286D01*
X3743333Y-2219238D01*
X3733809Y-2209714D01*
X3714762Y-2200190D01*
X3990952Y-2314476D02*
X3990952Y-2114476D01*
X4076667Y-2314476D02*
X4076667Y-2209714D01*
X4067143Y-2190667D01*
X4048095Y-2181143D01*
X4019524Y-2181143D01*
X4000476Y-2190667D01*
X3990952Y-2200190D01*
X4200476Y-2314476D02*
X4181428Y-2304952D01*
X4171905Y-2295429D01*
X4162381Y-2276381D01*
X4162381Y-2219238D01*
X4171905Y-2200190D01*
X4181428Y-2190667D01*
X4200476Y-2181143D01*
X4229048Y-2181143D01*
X4248095Y-2190667D01*
X4257619Y-2200190D01*
X4267143Y-2219238D01*
X4267143Y-2276381D01*
X4257619Y-2295429D01*
X4248095Y-2304952D01*
X4229048Y-2314476D01*
X4200476Y-2314476D01*
X4381429Y-2314476D02*
X4362381Y-2304952D01*
X4352857Y-2285905D01*
X4352857Y-2114476D01*
X4533810Y-2304952D02*
X4514762Y-2314476D01*
X4476667Y-2314476D01*
X4457619Y-2304952D01*
X4448095Y-2285905D01*
X4448095Y-2209714D01*
X4457619Y-2190667D01*
X4476667Y-2181143D01*
X4514762Y-2181143D01*
X4533810Y-2190667D01*
X4543333Y-2209714D01*
X4543333Y-2228762D01*
X4448095Y-2247810D01*
X4619524Y-2304952D02*
X4638571Y-2314476D01*
X4676667Y-2314476D01*
X4695714Y-2304952D01*
X4705238Y-2285905D01*
X4705238Y-2276381D01*
X4695714Y-2257333D01*
X4676667Y-2247810D01*
X4648095Y-2247810D01*
X4629048Y-2238286D01*
X4619524Y-2219238D01*
X4619524Y-2209714D01*
X4629048Y-2190667D01*
X4648095Y-2181143D01*
X4676667Y-2181143D01*
X4695714Y-2190667D01*
X4771905Y-2390667D02*
X4781429Y-2381143D01*
X4800476Y-2352571D01*
X4810000Y-2333524D01*
X4819524Y-2304952D01*
X4829048Y-2257333D01*
X4829048Y-2219238D01*
X4819524Y-2171619D01*
X4810000Y-2143048D01*
X4800476Y-2124000D01*
X4781429Y-2095428D01*
X4771905Y-2085905D01*
D17*
X-120000Y-2428000D02*
X0Y-2548000D01*
X0Y-2428000D02*
X-120000Y-2548000D01*
X-17573Y-2530427D02*
X-17573Y-2445573D01*
X-102427Y-2445573D01*
X-102427Y-2530427D01*
X-17573Y-2530427D01*
D10*
X362381Y-2578476D02*
X248095Y-2578476D01*
X305238Y-2578476D02*
X305238Y-2378476D01*
X286190Y-2407048D01*
X267143Y-2426095D01*
X248095Y-2435619D01*
X448095Y-2559429D02*
X457619Y-2568952D01*
X448095Y-2578476D01*
X438571Y-2568952D01*
X448095Y-2559429D01*
X448095Y-2578476D01*
X533810Y-2397524D02*
X543333Y-2388000D01*
X562381Y-2378476D01*
X610000Y-2378476D01*
X629048Y-2388000D01*
X638571Y-2397524D01*
X648095Y-2416571D01*
X648095Y-2435619D01*
X638571Y-2464190D01*
X524286Y-2578476D01*
X648095Y-2578476D01*
X771905Y-2378476D02*
X790952Y-2378476D01*
X810000Y-2388000D01*
X819524Y-2397524D01*
X829048Y-2416571D01*
X838571Y-2454667D01*
X838571Y-2502286D01*
X829048Y-2540381D01*
X819524Y-2559429D01*
X810000Y-2568952D01*
X790952Y-2578476D01*
X771905Y-2578476D01*
X752857Y-2568952D01*
X743333Y-2559429D01*
X733809Y-2540381D01*
X724286Y-2502286D01*
X724286Y-2454667D01*
X733809Y-2416571D01*
X743333Y-2397524D01*
X752857Y-2388000D01*
X771905Y-2378476D01*
X962381Y-2378476D02*
X981428Y-2378476D01*
X1000476Y-2388000D01*
X1010000Y-2397524D01*
X1019524Y-2416571D01*
X1029048Y-2454667D01*
X1029048Y-2502286D01*
X1019524Y-2540381D01*
X1010000Y-2559429D01*
X1000476Y-2568952D01*
X981428Y-2578476D01*
X962381Y-2578476D01*
X943333Y-2568952D01*
X933809Y-2559429D01*
X924286Y-2540381D01*
X914762Y-2502286D01*
X914762Y-2454667D01*
X924286Y-2416571D01*
X933809Y-2397524D01*
X943333Y-2388000D01*
X962381Y-2378476D01*
X1114762Y-2578476D02*
X1114762Y-2445143D01*
X1114762Y-2464190D02*
X1124286Y-2454667D01*
X1143333Y-2445143D01*
X1171905Y-2445143D01*
X1190952Y-2454667D01*
X1200476Y-2473714D01*
X1200476Y-2578476D01*
X1200476Y-2473714D02*
X1210000Y-2454667D01*
X1229048Y-2445143D01*
X1257619Y-2445143D01*
X1276667Y-2454667D01*
X1286190Y-2473714D01*
X1286190Y-2578476D01*
X1381429Y-2578476D02*
X1381429Y-2445143D01*
X1381429Y-2464190D02*
X1390952Y-2454667D01*
X1410000Y-2445143D01*
X1438571Y-2445143D01*
X1457619Y-2454667D01*
X1467143Y-2473714D01*
X1467143Y-2578476D01*
X1467143Y-2473714D02*
X1476667Y-2454667D01*
X1495714Y-2445143D01*
X1524286Y-2445143D01*
X1543333Y-2454667D01*
X1552857Y-2473714D01*
X1552857Y-2578476D01*
X1943333Y-2368952D02*
X1771905Y-2626095D01*
X2200476Y-2378476D02*
X2219524Y-2378476D01*
X2238571Y-2388000D01*
X2248095Y-2397524D01*
X2257619Y-2416571D01*
X2267143Y-2454667D01*
X2267143Y-2502286D01*
X2257619Y-2540381D01*
X2248095Y-2559429D01*
X2238571Y-2568952D01*
X2219524Y-2578476D01*
X2200476Y-2578476D01*
X2181429Y-2568952D01*
X2171905Y-2559429D01*
X2162381Y-2540381D01*
X2152857Y-2502286D01*
X2152857Y-2454667D01*
X2162381Y-2416571D01*
X2171905Y-2397524D01*
X2181429Y-2388000D01*
X2200476Y-2378476D01*
X2352857Y-2559429D02*
X2362381Y-2568952D01*
X2352857Y-2578476D01*
X2343333Y-2568952D01*
X2352857Y-2559429D01*
X2352857Y-2578476D01*
X2486190Y-2378476D02*
X2505238Y-2378476D01*
X2524286Y-2388000D01*
X2533810Y-2397524D01*
X2543333Y-2416571D01*
X2552857Y-2454667D01*
X2552857Y-2502286D01*
X2543333Y-2540381D01*
X2533810Y-2559429D01*
X2524286Y-2568952D01*
X2505238Y-2578476D01*
X2486190Y-2578476D01*
X2467143Y-2568952D01*
X2457619Y-2559429D01*
X2448095Y-2540381D01*
X2438571Y-2502286D01*
X2438571Y-2454667D01*
X2448095Y-2416571D01*
X2457619Y-2397524D01*
X2467143Y-2388000D01*
X2486190Y-2378476D01*
X2724286Y-2445143D02*
X2724286Y-2578476D01*
X2676667Y-2368952D02*
X2629048Y-2511810D01*
X2752857Y-2511810D01*
X2810000Y-2378476D02*
X2943333Y-2378476D01*
X2857619Y-2578476D01*
X3010000Y-2397524D02*
X3019524Y-2388000D01*
X3038571Y-2378476D01*
X3086190Y-2378476D01*
X3105238Y-2388000D01*
X3114762Y-2397524D01*
X3124286Y-2416571D01*
X3124286Y-2435619D01*
X3114762Y-2464190D01*
X3000476Y-2578476D01*
X3124286Y-2578476D01*
X3200476Y-2378476D02*
X3200476Y-2416571D01*
X3276667Y-2378476D02*
X3276667Y-2416571D01*
X3571905Y-2654667D02*
X3562381Y-2645143D01*
X3543333Y-2616571D01*
X3533809Y-2597524D01*
X3524286Y-2568952D01*
X3514762Y-2521333D01*
X3514762Y-2483238D01*
X3524286Y-2435619D01*
X3533809Y-2407048D01*
X3543333Y-2388000D01*
X3562381Y-2359429D01*
X3571905Y-2349905D01*
X3743333Y-2378476D02*
X3648095Y-2378476D01*
X3638571Y-2473714D01*
X3648095Y-2464190D01*
X3667143Y-2454667D01*
X3714762Y-2454667D01*
X3733809Y-2464190D01*
X3743333Y-2473714D01*
X3752857Y-2492762D01*
X3752857Y-2540381D01*
X3743333Y-2559429D01*
X3733809Y-2568952D01*
X3714762Y-2578476D01*
X3667143Y-2578476D01*
X3648095Y-2568952D01*
X3638571Y-2559429D01*
X3990952Y-2578476D02*
X3990952Y-2378476D01*
X4076667Y-2578476D02*
X4076667Y-2473714D01*
X4067143Y-2454667D01*
X4048095Y-2445143D01*
X4019524Y-2445143D01*
X4000476Y-2454667D01*
X3990952Y-2464190D01*
X4200476Y-2578476D02*
X4181428Y-2568952D01*
X4171905Y-2559429D01*
X4162381Y-2540381D01*
X4162381Y-2483238D01*
X4171905Y-2464190D01*
X4181428Y-2454667D01*
X4200476Y-2445143D01*
X4229048Y-2445143D01*
X4248095Y-2454667D01*
X4257619Y-2464190D01*
X4267143Y-2483238D01*
X4267143Y-2540381D01*
X4257619Y-2559429D01*
X4248095Y-2568952D01*
X4229048Y-2578476D01*
X4200476Y-2578476D01*
X4381429Y-2578476D02*
X4362381Y-2568952D01*
X4352857Y-2549905D01*
X4352857Y-2378476D01*
X4533810Y-2568952D02*
X4514762Y-2578476D01*
X4476667Y-2578476D01*
X4457619Y-2568952D01*
X4448095Y-2549905D01*
X4448095Y-2473714D01*
X4457619Y-2454667D01*
X4476667Y-2445143D01*
X4514762Y-2445143D01*
X4533810Y-2454667D01*
X4543333Y-2473714D01*
X4543333Y-2492762D01*
X4448095Y-2511810D01*
X4619524Y-2568952D02*
X4638571Y-2578476D01*
X4676667Y-2578476D01*
X4695714Y-2568952D01*
X4705238Y-2549905D01*
X4705238Y-2540381D01*
X4695714Y-2521333D01*
X4676667Y-2511810D01*
X4648095Y-2511810D01*
X4629048Y-2502286D01*
X4619524Y-2483238D01*
X4619524Y-2473714D01*
X4629048Y-2454667D01*
X4648095Y-2445143D01*
X4676667Y-2445143D01*
X4695714Y-2454667D01*
X4771905Y-2654667D02*
X4781429Y-2645143D01*
X4800476Y-2616571D01*
X4810000Y-2597524D01*
X4819524Y-2568952D01*
X4829048Y-2521333D01*
X4829048Y-2483238D01*
X4819524Y-2435619D01*
X4810000Y-2407048D01*
X4800476Y-2388000D01*
X4781429Y-2359429D01*
X4771905Y-2349905D01*
D18*
X-157000Y-2673500D02*
X0Y-2830500D01*
X0Y-2673500D02*
X-157000Y-2830500D01*
X-78500Y-2830500D02*
X0Y-2752000D01*
X-78500Y-2673500D01*
X-157000Y-2752000D01*
X-78500Y-2830500D01*
D10*
X362381Y-2842476D02*
X248095Y-2842476D01*
X305238Y-2842476D02*
X305238Y-2642476D01*
X286190Y-2671048D01*
X267143Y-2690095D01*
X248095Y-2699619D01*
X448095Y-2823428D02*
X457619Y-2832952D01*
X448095Y-2842476D01*
X438571Y-2832952D01*
X448095Y-2823428D01*
X448095Y-2842476D01*
X638571Y-2642476D02*
X543333Y-2642476D01*
X533810Y-2737714D01*
X543333Y-2728190D01*
X562381Y-2718667D01*
X610000Y-2718667D01*
X629048Y-2728190D01*
X638571Y-2737714D01*
X648095Y-2756762D01*
X648095Y-2804381D01*
X638571Y-2823428D01*
X629048Y-2832952D01*
X610000Y-2842476D01*
X562381Y-2842476D01*
X543333Y-2832952D01*
X533810Y-2823428D01*
X714762Y-2642476D02*
X848095Y-2642476D01*
X762381Y-2842476D01*
X962381Y-2642476D02*
X981428Y-2642476D01*
X1000476Y-2652000D01*
X1010000Y-2661524D01*
X1019524Y-2680571D01*
X1029048Y-2718667D01*
X1029048Y-2766286D01*
X1019524Y-2804381D01*
X1010000Y-2823428D01*
X1000476Y-2832952D01*
X981428Y-2842476D01*
X962381Y-2842476D01*
X943333Y-2832952D01*
X933809Y-2823428D01*
X924286Y-2804381D01*
X914762Y-2766286D01*
X914762Y-2718667D01*
X924286Y-2680571D01*
X933809Y-2661524D01*
X943333Y-2652000D01*
X962381Y-2642476D01*
X1114762Y-2842476D02*
X1114762Y-2709143D01*
X1114762Y-2728190D02*
X1124286Y-2718667D01*
X1143333Y-2709143D01*
X1171905Y-2709143D01*
X1190952Y-2718667D01*
X1200476Y-2737714D01*
X1200476Y-2842476D01*
X1200476Y-2737714D02*
X1210000Y-2718667D01*
X1229048Y-2709143D01*
X1257619Y-2709143D01*
X1276667Y-2718667D01*
X1286190Y-2737714D01*
X1286190Y-2842476D01*
X1381429Y-2842476D02*
X1381429Y-2709143D01*
X1381429Y-2728190D02*
X1390952Y-2718667D01*
X1410000Y-2709143D01*
X1438571Y-2709143D01*
X1457619Y-2718667D01*
X1467143Y-2737714D01*
X1467143Y-2842476D01*
X1467143Y-2737714D02*
X1476667Y-2718667D01*
X1495714Y-2709143D01*
X1524286Y-2709143D01*
X1543333Y-2718667D01*
X1552857Y-2737714D01*
X1552857Y-2842476D01*
X1943333Y-2632952D02*
X1771905Y-2890095D01*
X2200476Y-2642476D02*
X2219524Y-2642476D01*
X2238571Y-2652000D01*
X2248095Y-2661524D01*
X2257619Y-2680571D01*
X2267143Y-2718667D01*
X2267143Y-2766286D01*
X2257619Y-2804381D01*
X2248095Y-2823428D01*
X2238571Y-2832952D01*
X2219524Y-2842476D01*
X2200476Y-2842476D01*
X2181429Y-2832952D01*
X2171905Y-2823428D01*
X2162381Y-2804381D01*
X2152857Y-2766286D01*
X2152857Y-2718667D01*
X2162381Y-2680571D01*
X2171905Y-2661524D01*
X2181429Y-2652000D01*
X2200476Y-2642476D01*
X2352857Y-2823428D02*
X2362381Y-2832952D01*
X2352857Y-2842476D01*
X2343333Y-2832952D01*
X2352857Y-2823428D01*
X2352857Y-2842476D01*
X2486190Y-2642476D02*
X2505238Y-2642476D01*
X2524286Y-2652000D01*
X2533810Y-2661524D01*
X2543333Y-2680571D01*
X2552857Y-2718667D01*
X2552857Y-2766286D01*
X2543333Y-2804381D01*
X2533810Y-2823428D01*
X2524286Y-2832952D01*
X2505238Y-2842476D01*
X2486190Y-2842476D01*
X2467143Y-2832952D01*
X2457619Y-2823428D01*
X2448095Y-2804381D01*
X2438571Y-2766286D01*
X2438571Y-2718667D01*
X2448095Y-2680571D01*
X2457619Y-2661524D01*
X2467143Y-2652000D01*
X2486190Y-2642476D01*
X2724286Y-2642476D02*
X2686190Y-2642476D01*
X2667143Y-2652000D01*
X2657619Y-2661524D01*
X2638571Y-2690095D01*
X2629048Y-2728190D01*
X2629048Y-2804381D01*
X2638571Y-2823428D01*
X2648095Y-2832952D01*
X2667143Y-2842476D01*
X2705238Y-2842476D01*
X2724286Y-2832952D01*
X2733810Y-2823428D01*
X2743333Y-2804381D01*
X2743333Y-2756762D01*
X2733810Y-2737714D01*
X2724286Y-2728190D01*
X2705238Y-2718667D01*
X2667143Y-2718667D01*
X2648095Y-2728190D01*
X2638571Y-2737714D01*
X2629048Y-2756762D01*
X2933809Y-2842476D02*
X2819524Y-2842476D01*
X2876667Y-2842476D02*
X2876667Y-2642476D01*
X2857619Y-2671048D01*
X2838571Y-2690095D01*
X2819524Y-2699619D01*
X3048095Y-2728190D02*
X3029048Y-2718667D01*
X3019524Y-2709143D01*
X3010000Y-2690095D01*
X3010000Y-2680571D01*
X3019524Y-2661524D01*
X3029048Y-2652000D01*
X3048095Y-2642476D01*
X3086190Y-2642476D01*
X3105238Y-2652000D01*
X3114762Y-2661524D01*
X3124286Y-2680571D01*
X3124286Y-2690095D01*
X3114762Y-2709143D01*
X3105238Y-2718667D01*
X3086190Y-2728190D01*
X3048095Y-2728190D01*
X3029048Y-2737714D01*
X3019524Y-2747238D01*
X3010000Y-2766286D01*
X3010000Y-2804381D01*
X3019524Y-2823428D01*
X3029048Y-2832952D01*
X3048095Y-2842476D01*
X3086190Y-2842476D01*
X3105238Y-2832952D01*
X3114762Y-2823428D01*
X3124286Y-2804381D01*
X3124286Y-2766286D01*
X3114762Y-2747238D01*
X3105238Y-2737714D01*
X3086190Y-2728190D01*
X3200476Y-2642476D02*
X3200476Y-2680571D01*
X3276667Y-2642476D02*
X3276667Y-2680571D01*
X3571905Y-2918667D02*
X3562381Y-2909143D01*
X3543333Y-2880571D01*
X3533809Y-2861524D01*
X3524286Y-2832952D01*
X3514762Y-2785333D01*
X3514762Y-2747238D01*
X3524286Y-2699619D01*
X3533809Y-2671048D01*
X3543333Y-2652000D01*
X3562381Y-2623429D01*
X3571905Y-2613905D01*
X3733809Y-2709143D02*
X3733809Y-2842476D01*
X3686190Y-2632952D02*
X3638571Y-2775810D01*
X3762381Y-2775810D01*
X3990952Y-2842476D02*
X3990952Y-2642476D01*
X4076667Y-2842476D02*
X4076667Y-2737714D01*
X4067143Y-2718667D01*
X4048095Y-2709143D01*
X4019524Y-2709143D01*
X4000476Y-2718667D01*
X3990952Y-2728190D01*
X4200476Y-2842476D02*
X4181428Y-2832952D01*
X4171905Y-2823428D01*
X4162381Y-2804381D01*
X4162381Y-2747238D01*
X4171905Y-2728190D01*
X4181428Y-2718667D01*
X4200476Y-2709143D01*
X4229048Y-2709143D01*
X4248095Y-2718667D01*
X4257619Y-2728190D01*
X4267143Y-2747238D01*
X4267143Y-2804381D01*
X4257619Y-2823428D01*
X4248095Y-2832952D01*
X4229048Y-2842476D01*
X4200476Y-2842476D01*
X4381429Y-2842476D02*
X4362381Y-2832952D01*
X4352857Y-2813905D01*
X4352857Y-2642476D01*
X4533810Y-2832952D02*
X4514762Y-2842476D01*
X4476667Y-2842476D01*
X4457619Y-2832952D01*
X4448095Y-2813905D01*
X4448095Y-2737714D01*
X4457619Y-2718667D01*
X4476667Y-2709143D01*
X4514762Y-2709143D01*
X4533810Y-2718667D01*
X4543333Y-2737714D01*
X4543333Y-2756762D01*
X4448095Y-2775810D01*
X4619524Y-2832952D02*
X4638571Y-2842476D01*
X4676667Y-2842476D01*
X4695714Y-2832952D01*
X4705238Y-2813905D01*
X4705238Y-2804381D01*
X4695714Y-2785333D01*
X4676667Y-2775810D01*
X4648095Y-2775810D01*
X4629048Y-2766286D01*
X4619524Y-2747238D01*
X4619524Y-2737714D01*
X4629048Y-2718667D01*
X4648095Y-2709143D01*
X4676667Y-2709143D01*
X4695714Y-2718667D01*
X4771905Y-2918667D02*
X4781429Y-2909143D01*
X4800476Y-2880571D01*
X4810000Y-2861524D01*
X4819524Y-2832952D01*
X4829048Y-2785333D01*
X4829048Y-2747238D01*
X4819524Y-2699619D01*
X4810000Y-2671048D01*
X4800476Y-2652000D01*
X4781429Y-2623429D01*
X4771905Y-2613905D01*
X-100000Y-2929000D02*
X-100000Y-3129000D01*
X-200000Y-3029000D02*
X0Y-3029000D01*
X0Y-3029000D02*
G75*
G03*
X0Y-3029000I-100000J0D01*
G01*
X238571Y-2919476D02*
X362381Y-2919476D01*
X295714Y-2995667D01*
X324286Y-2995667D01*
X343333Y-3005190D01*
X352857Y-3014714D01*
X362381Y-3033762D01*
X362381Y-3081381D01*
X352857Y-3100428D01*
X343333Y-3109952D01*
X324286Y-3119476D01*
X267143Y-3119476D01*
X248095Y-3109952D01*
X238571Y-3100428D01*
X448095Y-3100428D02*
X457619Y-3109952D01*
X448095Y-3119476D01*
X438571Y-3109952D01*
X448095Y-3100428D01*
X448095Y-3119476D01*
X533810Y-2938524D02*
X543333Y-2929000D01*
X562381Y-2919476D01*
X610000Y-2919476D01*
X629048Y-2929000D01*
X638571Y-2938524D01*
X648095Y-2957571D01*
X648095Y-2976619D01*
X638571Y-3005190D01*
X524286Y-3119476D01*
X648095Y-3119476D01*
X771905Y-2919476D02*
X790952Y-2919476D01*
X810000Y-2929000D01*
X819524Y-2938524D01*
X829048Y-2957571D01*
X838571Y-2995667D01*
X838571Y-3043286D01*
X829048Y-3081381D01*
X819524Y-3100428D01*
X810000Y-3109952D01*
X790952Y-3119476D01*
X771905Y-3119476D01*
X752857Y-3109952D01*
X743333Y-3100428D01*
X733809Y-3081381D01*
X724286Y-3043286D01*
X724286Y-2995667D01*
X733809Y-2957571D01*
X743333Y-2938524D01*
X752857Y-2929000D01*
X771905Y-2919476D01*
X962381Y-2919476D02*
X981428Y-2919476D01*
X1000476Y-2929000D01*
X1010000Y-2938524D01*
X1019524Y-2957571D01*
X1029048Y-2995667D01*
X1029048Y-3043286D01*
X1019524Y-3081381D01*
X1010000Y-3100428D01*
X1000476Y-3109952D01*
X981428Y-3119476D01*
X962381Y-3119476D01*
X943333Y-3109952D01*
X933809Y-3100428D01*
X924286Y-3081381D01*
X914762Y-3043286D01*
X914762Y-2995667D01*
X924286Y-2957571D01*
X933809Y-2938524D01*
X943333Y-2929000D01*
X962381Y-2919476D01*
X1114762Y-3119476D02*
X1114762Y-2986143D01*
X1114762Y-3005190D02*
X1124286Y-2995667D01*
X1143333Y-2986143D01*
X1171905Y-2986143D01*
X1190952Y-2995667D01*
X1200476Y-3014714D01*
X1200476Y-3119476D01*
X1200476Y-3014714D02*
X1210000Y-2995667D01*
X1229048Y-2986143D01*
X1257619Y-2986143D01*
X1276667Y-2995667D01*
X1286190Y-3014714D01*
X1286190Y-3119476D01*
X1381429Y-3119476D02*
X1381429Y-2986143D01*
X1381429Y-3005190D02*
X1390952Y-2995667D01*
X1410000Y-2986143D01*
X1438571Y-2986143D01*
X1457619Y-2995667D01*
X1467143Y-3014714D01*
X1467143Y-3119476D01*
X1467143Y-3014714D02*
X1476667Y-2995667D01*
X1495714Y-2986143D01*
X1524286Y-2986143D01*
X1543333Y-2995667D01*
X1552857Y-3014714D01*
X1552857Y-3119476D01*
X1943333Y-2909952D02*
X1771905Y-3167095D01*
X2200476Y-2919476D02*
X2219524Y-2919476D01*
X2238571Y-2929000D01*
X2248095Y-2938524D01*
X2257619Y-2957571D01*
X2267143Y-2995667D01*
X2267143Y-3043286D01*
X2257619Y-3081381D01*
X2248095Y-3100428D01*
X2238571Y-3109952D01*
X2219524Y-3119476D01*
X2200476Y-3119476D01*
X2181429Y-3109952D01*
X2171905Y-3100428D01*
X2162381Y-3081381D01*
X2152857Y-3043286D01*
X2152857Y-2995667D01*
X2162381Y-2957571D01*
X2171905Y-2938524D01*
X2181429Y-2929000D01*
X2200476Y-2919476D01*
X2352857Y-3100428D02*
X2362381Y-3109952D01*
X2352857Y-3119476D01*
X2343333Y-3109952D01*
X2352857Y-3100428D01*
X2352857Y-3119476D01*
X2552857Y-3119476D02*
X2438571Y-3119476D01*
X2495714Y-3119476D02*
X2495714Y-2919476D01*
X2476667Y-2948048D01*
X2457619Y-2967095D01*
X2438571Y-2976619D01*
X2629048Y-2938524D02*
X2638571Y-2929000D01*
X2657619Y-2919476D01*
X2705238Y-2919476D01*
X2724286Y-2929000D01*
X2733810Y-2938524D01*
X2743333Y-2957571D01*
X2743333Y-2976619D01*
X2733810Y-3005190D01*
X2619524Y-3119476D01*
X2743333Y-3119476D01*
X2914762Y-2919476D02*
X2876667Y-2919476D01*
X2857619Y-2929000D01*
X2848095Y-2938524D01*
X2829048Y-2967095D01*
X2819524Y-3005190D01*
X2819524Y-3081381D01*
X2829048Y-3100428D01*
X2838571Y-3109952D01*
X2857619Y-3119476D01*
X2895714Y-3119476D01*
X2914762Y-3109952D01*
X2924286Y-3100428D01*
X2933809Y-3081381D01*
X2933809Y-3033762D01*
X2924286Y-3014714D01*
X2914762Y-3005190D01*
X2895714Y-2995667D01*
X2857619Y-2995667D01*
X2838571Y-3005190D01*
X2829048Y-3014714D01*
X2819524Y-3033762D01*
X3057619Y-2919476D02*
X3076667Y-2919476D01*
X3095714Y-2929000D01*
X3105238Y-2938524D01*
X3114762Y-2957571D01*
X3124286Y-2995667D01*
X3124286Y-3043286D01*
X3114762Y-3081381D01*
X3105238Y-3100428D01*
X3095714Y-3109952D01*
X3076667Y-3119476D01*
X3057619Y-3119476D01*
X3038571Y-3109952D01*
X3029048Y-3100428D01*
X3019524Y-3081381D01*
X3010000Y-3043286D01*
X3010000Y-2995667D01*
X3019524Y-2957571D01*
X3029048Y-2938524D01*
X3038571Y-2929000D01*
X3057619Y-2919476D01*
X3200476Y-2919476D02*
X3200476Y-2957571D01*
X3276667Y-2919476D02*
X3276667Y-2957571D01*
X3571905Y-3195667D02*
X3562381Y-3186143D01*
X3543333Y-3157571D01*
X3533809Y-3138524D01*
X3524286Y-3109952D01*
X3514762Y-3062333D01*
X3514762Y-3024238D01*
X3524286Y-2976619D01*
X3533809Y-2948048D01*
X3543333Y-2929000D01*
X3562381Y-2900428D01*
X3571905Y-2890905D01*
X3733809Y-2986143D02*
X3733809Y-3119476D01*
X3686190Y-2909952D02*
X3638571Y-3052809D01*
X3762381Y-3052809D01*
X3990952Y-3119476D02*
X3990952Y-2919476D01*
X4076667Y-3119476D02*
X4076667Y-3014714D01*
X4067143Y-2995667D01*
X4048095Y-2986143D01*
X4019524Y-2986143D01*
X4000476Y-2995667D01*
X3990952Y-3005190D01*
X4200476Y-3119476D02*
X4181428Y-3109952D01*
X4171905Y-3100428D01*
X4162381Y-3081381D01*
X4162381Y-3024238D01*
X4171905Y-3005190D01*
X4181428Y-2995667D01*
X4200476Y-2986143D01*
X4229048Y-2986143D01*
X4248095Y-2995667D01*
X4257619Y-3005190D01*
X4267143Y-3024238D01*
X4267143Y-3081381D01*
X4257619Y-3100428D01*
X4248095Y-3109952D01*
X4229048Y-3119476D01*
X4200476Y-3119476D01*
X4381429Y-3119476D02*
X4362381Y-3109952D01*
X4352857Y-3090905D01*
X4352857Y-2919476D01*
X4533810Y-3109952D02*
X4514762Y-3119476D01*
X4476667Y-3119476D01*
X4457619Y-3109952D01*
X4448095Y-3090905D01*
X4448095Y-3014714D01*
X4457619Y-2995667D01*
X4476667Y-2986143D01*
X4514762Y-2986143D01*
X4533810Y-2995667D01*
X4543333Y-3014714D01*
X4543333Y-3033762D01*
X4448095Y-3052809D01*
X4619524Y-3109952D02*
X4638571Y-3119476D01*
X4676667Y-3119476D01*
X4695714Y-3109952D01*
X4705238Y-3090905D01*
X4705238Y-3081381D01*
X4695714Y-3062333D01*
X4676667Y-3052809D01*
X4648095Y-3052809D01*
X4629048Y-3043286D01*
X4619524Y-3024238D01*
X4619524Y-3014714D01*
X4629048Y-2995667D01*
X4648095Y-2986143D01*
X4676667Y-2986143D01*
X4695714Y-2995667D01*
X4771905Y-3195667D02*
X4781429Y-3186143D01*
X4800476Y-3157571D01*
X4810000Y-3138524D01*
X4819524Y-3109952D01*
X4829048Y-3062333D01*
X4829048Y-3024238D01*
X4819524Y-2976619D01*
X4810000Y-2948048D01*
X4800476Y-2929000D01*
X4781429Y-2900428D01*
X4771905Y-2890905D01*
M02*
