M48
; DRILL file {KiCad (6.0.9)} date Thu Sep 14 23:13:00 2023
; FORMAT={-:-/ absolute / inch / decimal}
; #@! TF.CreationDate,2023-09-14T23:13:00+02:00
; #@! TF.GenerationSoftware,Kicad,Pcbnew,(6.0.9)
; #@! TF.FileFunction,Plated,1,2,PTH
FMAT,2
INCH
; #@! TA.AperFunction,Plated,PTH,ViaDrill
T1C0.0157
; #@! TA.AperFunction,Plated,PTH,ComponentDrill
T2C0.0315
; #@! TA.AperFunction,Plated,PTH,ComponentDrill
T3C0.0350
; #@! TA.AperFunction,Plated,PTH,ViaDrill
T4C0.0394
; #@! TA.AperFunction,Plated,PTH,ComponentDrill
T5C0.0394
; #@! TA.AperFunction,Plated,PTH,ComponentDrill
T6C0.0402
; #@! TA.AperFunction,Plated,PTH,ComponentDrill
T7C0.0433
; #@! TA.AperFunction,Plated,PTH,ComponentDrill
T8C0.0472
; #@! TA.AperFunction,Plated,PTH,ComponentDrill
T9C0.0618
; #@! TA.AperFunction,Plated,PTH,ComponentDrill
T10C0.1260
%
G90
G05
T1
X3.215Y-3.805
X3.22Y-5.03
X3.225Y-4.195
X3.23Y-3.395
X3.23Y-4.625
X3.24Y-2.975
X3.25Y-2.515
X3.285Y-1.85
X3.31Y-2.025
X3.415Y-4.48
X3.44Y-2.975
X3.44Y-3.25
X3.44Y-3.51
X3.45Y-4.4
X3.455Y-4.105
X3.47Y-1.995
X3.51Y-4.515
X3.55Y-2.105
X3.6Y-2.29
X3.655Y-2.11
X3.7Y-2.315
X3.765Y-2.345
X3.79Y-4.895
X3.805Y-2.075
X3.82Y-4.435
X3.84Y-3.405
X3.87Y-2.345
X3.89Y-2.82
X3.89Y-2.875
X3.9Y-4.13
X3.91Y-2.19
X3.91Y-2.19
X3.945Y-2.165
X3.99Y-4.855
X4.0Y-2.1631
X4.01Y-3.4
X4.105Y-4.505
X4.115Y-2.115
X4.16Y-2.005
X4.205Y-2.26
X4.315Y-4.4
X4.315Y-4.545
X4.34Y-4.925
X4.35Y-4.61
X4.41Y-2.115
X4.425Y-3.88
X4.445Y-2.42
X4.445Y-3.515
X4.45Y-2.975
X4.45Y-4.145
X4.48Y-4.4
X4.535Y-4.61
X4.55Y-4.7
X4.595Y-2.6
X4.595Y-2.83
X4.595Y-3.11
X4.595Y-4.38
X4.61Y-2.125
X4.615Y-2.37
X4.615Y-2.37
X4.62Y-3.46
X4.625Y-3.88
X4.65Y-2.0
X4.655Y-2.425
X4.69Y-4.56
X4.695Y-3.12
X4.7Y-3.595
X4.745Y-3.085
X4.745Y-3.695
X4.78Y-4.94
X4.795Y-2.36
X4.795Y-2.36
X4.795Y-2.78
X4.795Y-3.05
X4.805Y-3.2
X4.8298Y-4.2229
X4.83Y-4.34
X4.835Y-3.3
X4.84Y-3.55
X4.85Y-3.925
X4.94Y-2.2
X4.94Y-2.2
X4.96Y-4.425
X4.975Y-2.12
X5.0Y-2.015
X5.015Y-2.155
X5.025Y-4.0
X5.03Y-3.795
X5.045Y-2.51
X5.045Y-2.56
X5.045Y-2.56
X5.105Y-3.685
X5.1131Y-1.8196
X5.14Y-4.54
X5.175Y-2.855
X5.195Y-3.195
X5.22Y-1.945
X5.22Y-4.135
X5.225Y-3.58
X5.29Y-3.87
X5.34Y-4.98
X5.375Y-4.865
X5.38Y-2.015
X5.455Y-2.765
X5.46Y-3.225
X5.6Y-2.055
X5.65Y-2.215
X5.73Y-4.24
X5.805Y-2.045
X5.83Y-4.995
X5.87Y-2.215
X5.8848Y-3.7844
X5.905Y-4.24
X5.93Y-4.12
X5.955Y-2.68
X5.955Y-3.51
X5.96Y-3.105
X5.995Y-2.345
X5.995Y-2.485
X6.035Y-4.735
X6.055Y-4.87
X6.07Y-4.01
X6.075Y-2.045
X6.075Y-4.24
X6.12Y-2.485
X6.165Y-3.53
X6.195Y-4.36
X6.325Y-4.0
X6.355Y-3.25
X6.365Y-1.8
X6.445Y-3.51
X6.485Y-4.6
X6.485Y-4.84
X6.6Y-1.865
X6.605Y-3.325
X6.61Y-3.51
X6.84Y-4.75
X6.935Y-2.09
X6.96Y-3.115
X6.9998Y-4.5436
X7.0Y-3.82
X7.0Y-4.235
X7.005Y-4.12
T2
X3.6116Y-4.795
X3.675Y-2.715
X3.675Y-2.9119
X3.745Y-3.7116
X3.745Y-3.9084
X3.8084Y-4.795
X3.82Y-2.7116
X3.82Y-2.9084
X3.825Y-2.4331
X3.825Y-2.5316
X3.88Y-3.7116
X3.88Y-3.9084
X3.8958Y-3.085
X3.8958Y-3.285
X3.8966Y-4.795
X3.8966Y-4.92
X3.96Y-2.715
X3.96Y-2.9119
X3.9958Y-3.185
X4.015Y-3.7131
X4.015Y-3.91
X4.0934Y-4.795
X4.0934Y-4.92
X4.25Y-2.3502
X4.25Y-2.4502
X4.25Y-2.5502
X4.25Y-2.6502
X4.25Y-2.7502
X4.25Y-2.8502
X4.25Y-2.9502
X4.25Y-3.0502
X4.25Y-3.1502
X4.25Y-3.2502
X4.25Y-3.3502
X4.25Y-3.4502
X4.25Y-3.5502
X4.25Y-3.6502
X4.25Y-3.7502
X4.25Y-3.8502
X4.25Y-3.9502
X4.25Y-4.0502
X4.25Y-4.1502
X4.25Y-4.2502
X4.95Y-2.3502
X4.95Y-2.4502
X4.95Y-2.5502
X4.95Y-2.6502
X4.95Y-2.7502
X4.95Y-2.8502
X4.95Y-2.9502
X4.95Y-3.0502
X4.95Y-3.1502
X4.95Y-3.2502
X4.95Y-3.3502
X4.95Y-3.4502
X4.95Y-3.5502
X4.95Y-3.6502
X4.95Y-3.7502
X4.95Y-3.8502
X4.95Y-3.9502
X4.95Y-4.0502
X4.95Y-4.1502
X4.95Y-4.2502
X4.9816Y-4.74
X4.9816Y-4.875
X4.9816Y-5.005
X5.11Y-2.6
X5.1116Y-2.155
X5.1116Y-2.3
X5.1131Y-2.45
X5.12Y-4.14
X5.12Y-4.44
X5.125Y-2.995
X5.145Y-3.405
X5.1784Y-4.74
X5.1784Y-4.875
X5.1784Y-5.005
X5.3084Y-2.155
X5.3084Y-2.3
X5.31Y-2.45
X5.33Y-3.975
X5.33Y-4.475
X5.345Y-4.6742
X5.39Y-3.6081
X5.39Y-3.805
X5.445Y-4.5742
X5.51Y-3.6081
X5.51Y-3.805
X5.51Y-4.2357
X5.51Y-4.4357
X5.525Y-3.9016
X5.525Y-4.0984
X5.545Y-4.6742
X5.61Y-2.6
X5.625Y-2.995
X5.635Y-3.6116
X5.635Y-3.8084
X5.645Y-3.405
X5.66Y-3.9031
X5.66Y-4.1
X5.6893Y-4.75
X5.72Y-4.42
X5.72Y-4.595
X5.7504Y-2.6006
X5.7504Y-2.7006
X5.7504Y-2.8006
X5.7504Y-2.9956
X5.7504Y-3.0956
X5.7504Y-3.1956
X5.7504Y-3.405
X5.7504Y-3.505
X5.7504Y-3.605
X5.79Y-3.9031
X5.79Y-4.1
X5.8893Y-4.75
X5.92Y-4.42
X5.92Y-4.595
X6.0504Y-2.6006
X6.0504Y-2.7006
X6.0504Y-2.8006
X6.0504Y-2.9956
X6.0504Y-3.0956
X6.0504Y-3.1956
X6.0504Y-3.405
X6.0504Y-3.505
X6.0504Y-3.605
X6.075Y-4.3143
X6.075Y-4.5143
X6.08Y-2.1816
X6.08Y-2.3784
X6.1396Y-4.7485
X6.2046Y-4.2235
X6.205Y-2.1831
X6.205Y-2.38
X6.2396Y-4.6485
X6.27Y-2.5466
X6.27Y-2.7434
X6.3007Y-4.48
X6.3046Y-4.1235
X6.33Y-2.1831
X6.33Y-2.38
X6.3396Y-4.7485
X6.39Y-2.5466
X6.39Y-2.7434
X6.4046Y-4.2235
X6.475Y-2.2216
X6.475Y-2.4184
X6.49Y-3.6316
X6.49Y-3.8284
X6.5007Y-4.48
X6.525Y-2.69
X6.525Y-2.8869
X6.575Y-3.9931
X6.575Y-4.19
X6.605Y-2.2231
X6.605Y-2.42
X6.605Y-4.3481
X6.605Y-4.545
X6.62Y-3.6316
X6.62Y-3.8284
X6.65Y-2.69
X6.65Y-2.8869
X6.6716Y-2.56
X6.72Y-3.995
X6.72Y-4.1919
X6.73Y-2.225
X6.73Y-2.4219
X6.735Y-4.3481
X6.735Y-4.545
X6.78Y-2.69
X6.78Y-2.8869
X6.805Y-3.6316
X6.805Y-3.8284
X6.865Y-3.995
X6.865Y-4.1919
X6.865Y-4.3481
X6.865Y-4.545
X6.8684Y-2.56
T3
X3.5799Y-4.24
X3.5799Y-4.32
X3.5799Y-4.4
X3.5799Y-4.48
X3.65Y-4.2
X3.65Y-4.28
X3.65Y-4.36
X3.65Y-4.44
X4.4Y-4.8
X4.44Y-4.8701
X4.48Y-4.8
X4.52Y-4.8701
X4.56Y-4.8
X4.6Y-4.8701
X4.64Y-4.8
X4.68Y-4.8701
T4
X4.55Y-2.165
X4.6742Y-2.255
T5
X3.3998Y-1.9
X3.4998Y-1.9
X3.5998Y-1.9
X3.6998Y-1.9
X3.7998Y-1.9
X3.8998Y-1.9
X3.9998Y-1.9
X4.0998Y-1.9
X4.1998Y-1.9
X4.2998Y-1.9
X4.3998Y-1.9
X4.4998Y-1.9
X4.5006Y-4.25
X4.5998Y-1.9
X4.6006Y-4.25
X4.6998Y-1.9
X4.7006Y-4.25
X4.7998Y-1.9
X4.8998Y-1.9
X4.9998Y-1.9
X5.18Y-3.8048
X5.18Y-3.9048
X5.35Y-1.9
X5.45Y-1.9
X5.55Y-1.9
X5.65Y-1.9
X5.75Y-1.9
X5.85Y-1.9
X5.95Y-1.9
X6.05Y-1.9
X6.15Y-1.9
X6.25Y-1.9
X6.4994Y-2.0732
X6.5994Y-2.0732
X6.6994Y-2.0732
T6
X3.44Y-2.61
X3.44Y-2.71
X3.44Y-2.81
X3.4452Y-3.68
X3.4452Y-3.78
X3.4452Y-3.88
X6.9998Y-3.2646
X6.9998Y-3.3646
X6.9998Y-3.4646
X7.0Y-2.2196
X7.0Y-2.3196
X7.0Y-2.4196
X7.0Y-2.7
X7.0Y-2.8
X7.0Y-2.9
T7
X3.695Y-3.07
X3.695Y-3.47
X6.065Y-3.745
X6.065Y-4.145
X6.26Y-2.995
X6.295Y-3.4
X6.295Y-3.8
X6.66Y-2.995
T8
X6.705Y-4.755
X6.995Y-4.66
X7.0Y-3.7
X7.0Y-3.995
X7.0Y-4.345
T9
X3.615Y-4.0201
X3.615Y-4.6602
X4.2201Y-4.835
X4.8602Y-4.835
T10
X3.345Y-4.915
X3.395Y-2.19
X6.915Y-4.93
X6.94Y-1.865
T0
M30
