%TF.GenerationSoftware,KiCad,Pcbnew,(6.0.9)*%
%TF.CreationDate,2023-09-14T23:12:55+02:00*%
%TF.ProjectId,Ampli144MHz,416d706c-6931-4343-944d-487a2e6b6963,1.1*%
%TF.SameCoordinates,Original*%
%TF.FileFunction,Soldermask,Top*%
%TF.FilePolarity,Negative*%
%FSLAX46Y46*%
G04 Gerber Fmt 4.6, Leading zero omitted, Abs format (unit mm)*
G04 Created by KiCad (PCBNEW (6.0.9)) date 2023-09-14 23:12:55*
%MOMM*%
%LPD*%
G01*
G04 APERTURE LIST*
%ADD10C,1.600000*%
%ADD11R,2.200000X2.200000*%
%ADD12O,2.200000X2.200000*%
%ADD13R,1.700000X1.700000*%
%ADD14O,1.700000X1.700000*%
%ADD15R,2.030000X1.730000*%
%ADD16O,2.030000X1.730000*%
%ADD17R,2.500000X2.500000*%
%ADD18O,1.600000X1.600000*%
%ADD19R,2.400000X1.600000*%
%ADD20O,2.400000X1.600000*%
%ADD21R,1.500000X1.500000*%
%ADD22C,1.500000*%
%ADD23C,5.700000*%
%ADD24C,3.250000*%
%ADD25C,2.300000*%
%ADD26R,1.600000X1.600000*%
G04 APERTURE END LIST*
D10*
%TO.C,Cc6*%
X96734000Y-121793000D03*
X91734000Y-121793000D03*
%TD*%
D11*
%TO.C,D4*%
X154051000Y-95123000D03*
D12*
X154051000Y-105283000D03*
%TD*%
D13*
%TO.C,UI2C*%
X114315000Y-107950000D03*
D14*
X116855000Y-107950000D03*
X119395000Y-107950000D03*
%TD*%
D13*
%TO.C,JCIV1*%
X131572000Y-96642000D03*
D14*
X131572000Y-99182000D03*
%TD*%
D10*
%TO.C,Cb15*%
X139954000Y-96647000D03*
X139954000Y-91647000D03*
%TD*%
%TO.C,Cc9*%
X174371000Y-115443000D03*
X174371000Y-110443000D03*
%TD*%
%TO.C,Cb14*%
X157607000Y-60452000D03*
X157607000Y-55452000D03*
%TD*%
D15*
%TO.C,JS+P*%
X177800000Y-68580000D03*
D16*
X177800000Y-71120000D03*
X177800000Y-73660000D03*
%TD*%
D10*
%TO.C,Cb9*%
X171069000Y-115443000D03*
X171069000Y-110443000D03*
%TD*%
D17*
%TO.C,CK2*%
X177800000Y-101473000D03*
%TD*%
D10*
%TO.C,R4*%
X139954000Y-107588000D03*
D18*
X139954000Y-112668000D03*
%TD*%
D19*
%TO.C,U1*%
X107950000Y-59695000D03*
D20*
X107950000Y-62235000D03*
X107950000Y-64775000D03*
X107950000Y-67315000D03*
X107950000Y-69855000D03*
X107950000Y-72395000D03*
X107950000Y-74935000D03*
X107950000Y-77475000D03*
X107950000Y-80015000D03*
X107950000Y-82555000D03*
X107950000Y-85095000D03*
X107950000Y-87635000D03*
X107950000Y-90175000D03*
X107950000Y-92715000D03*
X107950000Y-95255000D03*
X107950000Y-97795000D03*
X107950000Y-100335000D03*
X107950000Y-102875000D03*
X107950000Y-105415000D03*
X107950000Y-107955000D03*
X125730000Y-107955000D03*
X125730000Y-105415000D03*
X125730000Y-102875000D03*
X125730000Y-100335000D03*
X125730000Y-97795000D03*
X125730000Y-95255000D03*
X125730000Y-92715000D03*
X125730000Y-90175000D03*
X125730000Y-87635000D03*
X125730000Y-85095000D03*
X125730000Y-82555000D03*
X125730000Y-80015000D03*
X125730000Y-77475000D03*
X125730000Y-74935000D03*
X125730000Y-72395000D03*
X125730000Y-69855000D03*
X125730000Y-67315000D03*
X125730000Y-64775000D03*
X125730000Y-62235000D03*
X125730000Y-59695000D03*
%TD*%
D15*
%TO.C,J5*%
X87376000Y-71374000D03*
D16*
X87376000Y-68834000D03*
X87376000Y-66294000D03*
%TD*%
D10*
%TO.C,Ca7*%
X172847000Y-92242000D03*
X172847000Y-97242000D03*
%TD*%
D21*
%TO.C,U7809*%
X98954000Y-78359000D03*
D22*
X101494000Y-80899000D03*
X98954000Y-83439000D03*
%TD*%
D10*
%TO.C,Cc4*%
X170942000Y-56515000D03*
X170942000Y-61515000D03*
%TD*%
D23*
%TO.C,H3*%
X84963000Y-124841000D03*
%TD*%
D13*
%TO.C,JAmp*%
X170165000Y-52660000D03*
D14*
X167625000Y-52660000D03*
X165085000Y-52660000D03*
%TD*%
D10*
%TO.C,Cc7*%
X164846000Y-97242000D03*
X164846000Y-92242000D03*
%TD*%
D11*
%TO.C,D5*%
X93853000Y-77978000D03*
D12*
X93853000Y-88138000D03*
%TD*%
D10*
%TO.C,Ca3*%
X172212000Y-73326000D03*
X172212000Y-68326000D03*
%TD*%
D15*
%TO.C,JTemp*%
X87509000Y-98552000D03*
D16*
X87509000Y-96012000D03*
X87509000Y-93472000D03*
%TD*%
D10*
%TO.C,Cb6*%
X98973000Y-124968000D03*
X103973000Y-124968000D03*
%TD*%
D24*
%TO.C,RJ45-IN*%
X121670000Y-119380000D03*
X108970000Y-119380000D03*
D21*
X111760000Y-121920000D03*
D22*
X112776000Y-123700000D03*
X113792000Y-121920000D03*
X114808000Y-123700000D03*
X115824000Y-121920000D03*
X116840000Y-123700000D03*
X117856000Y-121920000D03*
X118872000Y-123700000D03*
D25*
X123450000Y-122810000D03*
X107190000Y-122810000D03*
%TD*%
D17*
%TO.C,CK1*%
X177800000Y-93980000D03*
%TD*%
%TO.C,CK3*%
X177800000Y-110363000D03*
%TD*%
D10*
%TO.C,Ra6*%
X145288000Y-116713000D03*
D18*
X150368000Y-116713000D03*
%TD*%
D26*
%TO.C,C11*%
X97155000Y-64301380D03*
D10*
X97155000Y-61801380D03*
%TD*%
D17*
%TO.C,CKBias1*%
X170307000Y-120777000D03*
%TD*%
D10*
%TO.C,Ca13*%
X159258000Y-69683000D03*
X159258000Y-64683000D03*
%TD*%
%TO.C,Cb2*%
X98552000Y-99274000D03*
X98552000Y-94274000D03*
%TD*%
%TO.C,Cb16*%
X143764000Y-104140000D03*
X143764000Y-99140000D03*
%TD*%
%TO.C,R2*%
X130175000Y-76073000D03*
D18*
X142875000Y-76073000D03*
%TD*%
D10*
%TO.C,Ca16*%
X140335000Y-104100000D03*
X140335000Y-99100000D03*
%TD*%
%TO.C,Ca12*%
X93345000Y-68961000D03*
X93345000Y-73961000D03*
%TD*%
%TO.C,Cc16*%
X147066000Y-104140000D03*
X147066000Y-99140000D03*
%TD*%
%TO.C,R3*%
X130683000Y-86487000D03*
D18*
X143383000Y-86487000D03*
%TD*%
D10*
%TO.C,Ca15*%
X136906000Y-96647000D03*
X136906000Y-91647000D03*
%TD*%
%TO.C,Ca14*%
X160782000Y-60452000D03*
X160782000Y-55452000D03*
%TD*%
%TO.C,Cb8*%
X170688000Y-101473000D03*
X170688000Y-106473000D03*
%TD*%
%TO.C,Cc1*%
X134874000Y-62230000D03*
X129874000Y-62230000D03*
%TD*%
D26*
%TO.C,D1*%
X130048000Y-112776000D03*
D18*
X130048000Y-105156000D03*
%TD*%
D10*
%TO.C,Cb1*%
X129834000Y-58420000D03*
X134834000Y-58420000D03*
%TD*%
%TO.C,Cc12*%
X100584000Y-68961000D03*
X100584000Y-73961000D03*
%TD*%
D17*
%TO.C,CK220V*%
X177673000Y-118364000D03*
%TD*%
D10*
%TO.C,Ca4*%
X164465000Y-56428000D03*
X164465000Y-61428000D03*
%TD*%
%TO.C,Ra4*%
X149587000Y-120650000D03*
D18*
X144507000Y-120650000D03*
%TD*%
D10*
%TO.C,Ca5*%
X126532000Y-127127000D03*
X131532000Y-127127000D03*
%TD*%
%TO.C,Ca2*%
X95123000Y-94274000D03*
X95123000Y-99274000D03*
%TD*%
D11*
%TO.C,D3*%
X159893000Y-86360000D03*
D12*
X159893000Y-96520000D03*
%TD*%
D10*
%TO.C,Cc8*%
X167005000Y-106426000D03*
X167005000Y-101426000D03*
%TD*%
%TO.C,Cc2*%
X101981000Y-99314000D03*
X101981000Y-94314000D03*
%TD*%
D23*
%TO.C,H2*%
X86233000Y-55626000D03*
%TD*%
D10*
%TO.C,Ca8*%
X174371000Y-101473000D03*
X174371000Y-106473000D03*
%TD*%
%TO.C,Cc3*%
X165735000Y-73326000D03*
X165735000Y-68326000D03*
%TD*%
D26*
%TO.C,U22*%
X146060000Y-86487000D03*
D18*
X146060000Y-89027000D03*
X146060000Y-91567000D03*
X153680000Y-91567000D03*
X153680000Y-89027000D03*
X153680000Y-86487000D03*
%TD*%
D11*
%TO.C,D2*%
X169164000Y-76073000D03*
D12*
X159004000Y-76073000D03*
%TD*%
D10*
%TO.C,Cb4*%
X167767000Y-56468000D03*
X167767000Y-61468000D03*
%TD*%
%TO.C,Cc5*%
X126532000Y-120396000D03*
X131532000Y-120396000D03*
%TD*%
%TO.C,Ca1*%
X134834000Y-54737000D03*
X129834000Y-54737000D03*
%TD*%
D13*
%TO.C,JADC16bits*%
X158750000Y-48260000D03*
D14*
X156210000Y-48260000D03*
X153670000Y-48260000D03*
X151130000Y-48260000D03*
X148590000Y-48260000D03*
X146050000Y-48260000D03*
X143510000Y-48260000D03*
X140970000Y-48260000D03*
X138430000Y-48260000D03*
X135890000Y-48260000D03*
%TD*%
D15*
%TO.C,JdBm*%
X177800000Y-56378000D03*
D16*
X177800000Y-58918000D03*
X177800000Y-61458000D03*
%TD*%
D10*
%TO.C,R6*%
X145288000Y-112268000D03*
D18*
X150368000Y-112268000D03*
%TD*%
D10*
%TO.C,Cb3*%
X168910000Y-73326000D03*
X168910000Y-68326000D03*
%TD*%
D23*
%TO.C,H4*%
X175641000Y-125222000D03*
%TD*%
D10*
%TO.C,Cb5*%
X126532000Y-123825000D03*
X131532000Y-123825000D03*
%TD*%
%TO.C,Cb13*%
X162306000Y-69683000D03*
X162306000Y-64683000D03*
%TD*%
D26*
%TO.C,U21*%
X146060000Y-76088000D03*
D18*
X146060000Y-78628000D03*
X146060000Y-81168000D03*
X153680000Y-81168000D03*
X153680000Y-78628000D03*
X153680000Y-76088000D03*
%TD*%
D21*
%TO.C,Q3*%
X155946000Y-120611000D03*
D22*
X158486000Y-118071000D03*
X161026000Y-120611000D03*
%TD*%
D10*
%TO.C,Cb12*%
X97028000Y-68874000D03*
X97028000Y-73874000D03*
%TD*%
D26*
%TO.C,U20*%
X146060000Y-66055000D03*
D18*
X146060000Y-68595000D03*
X146060000Y-71135000D03*
X153680000Y-71135000D03*
X153680000Y-68595000D03*
X153680000Y-66055000D03*
%TD*%
D10*
%TO.C,R1*%
X129794000Y-66040000D03*
D18*
X142494000Y-66040000D03*
%TD*%
D24*
%TO.C,RJ45-OUT*%
X95250000Y-103890000D03*
X95250000Y-116590000D03*
D21*
X92710000Y-106680000D03*
D22*
X90930000Y-107696000D03*
X92710000Y-108712000D03*
X90930000Y-109728000D03*
X92710000Y-110744000D03*
X90930000Y-111760000D03*
X92710000Y-112776000D03*
X90930000Y-113792000D03*
D25*
X91820000Y-118370000D03*
X91820000Y-102110000D03*
%TD*%
D10*
%TO.C,Ra7*%
X160039000Y-113792000D03*
D18*
X165119000Y-113792000D03*
%TD*%
D21*
%TO.C,Q2*%
X157597000Y-107276000D03*
D22*
X160137000Y-104736000D03*
X162677000Y-107276000D03*
%TD*%
D10*
%TO.C,Cc15*%
X143129000Y-96734000D03*
X143129000Y-91734000D03*
%TD*%
D13*
%TO.C,JTFT+Touch*%
X86355000Y-48260000D03*
D14*
X88895000Y-48260000D03*
X91435000Y-48260000D03*
X93975000Y-48260000D03*
X96515000Y-48260000D03*
X99055000Y-48260000D03*
X101595000Y-48260000D03*
X104135000Y-48260000D03*
X106675000Y-48260000D03*
X109215000Y-48260000D03*
X111755000Y-48260000D03*
X114295000Y-48260000D03*
X116835000Y-48260000D03*
X119375000Y-48260000D03*
X121915000Y-48260000D03*
X124455000Y-48260000D03*
X126995000Y-48260000D03*
%TD*%
D10*
%TO.C,Cc14*%
X154432000Y-60412000D03*
X154432000Y-55412000D03*
%TD*%
D15*
%TO.C,Alim +28V*%
X177794000Y-82921000D03*
D16*
X177794000Y-85461000D03*
X177794000Y-88001000D03*
%TD*%
D10*
%TO.C,Ca9*%
X167767000Y-115443000D03*
X167767000Y-110443000D03*
%TD*%
%TO.C,R5*%
X135382000Y-113665000D03*
D18*
X135382000Y-100965000D03*
%TD*%
D10*
%TO.C,Ca6*%
X98973000Y-121793000D03*
X103973000Y-121793000D03*
%TD*%
D21*
%TO.C,Q1*%
X135763000Y-118724000D03*
D22*
X138303000Y-116184000D03*
X140843000Y-118724000D03*
%TD*%
D10*
%TO.C,Cb7*%
X168148000Y-97242000D03*
X168148000Y-92242000D03*
%TD*%
%TO.C,Cc13*%
X169458000Y-65024000D03*
X174458000Y-65024000D03*
%TD*%
D23*
%TO.C,H1*%
X176276000Y-47371000D03*
%TD*%
D10*
%TO.C,R7*%
X154305000Y-114662000D03*
D18*
X154305000Y-109582000D03*
%TD*%
M02*
